<svg width="843" height="476" viewBox="0 0 843 476" fill="none" xmlns="http://www.w3.org/2000/svg">
<rect width="843" height="476" fill="#E5E5E5"/>
<g id="Asset 1 1" clip-path="url(#clip0)">
<g id="Layer 2">
<g id="Layer 3">
<path id="Vector" d="M0 469.7L223.81 303.02L615.49 301.51L839.65 470L12.08 469.7H0Z" stroke="#5C74BF" stroke-miterlimit="10"/>
<path id="Vector_2" d="M243.55 303.03L46.58 469.7" stroke="#5C74BF" stroke-miterlimit="10"/>
<path id="Vector_3" d="M266.52 303.09L93.82 469.7" stroke="#5C74BF" stroke-miterlimit="10"/>
<path id="Vector_4" d="M289.35 303.03L140.26 469.7" stroke="#5C74BF" stroke-miterlimit="10"/>
<path id="Vector_5" d="M310.67 303.03L186.85 469.7" stroke="#5C74BF" stroke-miterlimit="10"/>
<path id="Vector_6" d="M333.57 302.27L233.46 469.7" stroke="#5C74BF" stroke-miterlimit="10"/>
<path id="Vector_7" d="M354.11 302.27L279.98 469.7" stroke="#5C74BF" stroke-miterlimit="10"/>
<path id="Vector_8" d="M326.57 469.7L376.27 302.2" stroke="#5C74BF" stroke-miterlimit="10"/>
<path id="Vector_9" d="M373.24 469.7L399.26 302.2" stroke="#5C74BF" stroke-miterlimit="10"/>
<path id="Vector_10" d="M422.28 302.2L419.91 469.7" stroke="#5C74BF" stroke-miterlimit="10"/>
<path id="Vector_11" d="M440.39 301.45L466.49 469.7" stroke="#5C74BF" stroke-miterlimit="10"/>
<path id="Vector_12" d="M463.43 301.45L513.14 469.7" stroke="#5C74BF" stroke-miterlimit="10"/>
<path id="Vector_13" d="M486.35 301.45L559.67 469.7" stroke="#5C74BF" stroke-miterlimit="10"/>
<path id="Vector_14" d="M506.24 301.45L606.1 469.7" stroke="#5C74BF" stroke-miterlimit="10"/>
<path id="Vector_15" d="M652.79 469.7L529.03 301.45" stroke="#5C74BF" stroke-miterlimit="10"/>
<path id="Vector_16" d="M699.47 469.7L549.95 301.51" stroke="#5C74BF" stroke-miterlimit="10"/>
<path id="Vector_17" d="M746.09 469.7L571.27 301.51" stroke="#5C74BF" stroke-miterlimit="10"/>
<path id="Vector_18" d="M792.65 469.7L593.38 301.51" stroke="#5C74BF" stroke-miterlimit="10"/>
<path id="Vector_19" d="M45.44 435.79L794.24 435.83" stroke="#5C74BF" stroke-miterlimit="10"/>
<path id="Vector_20" d="M757.85 408.5H81.97" stroke="#5C74BF" stroke-miterlimit="10"/>
<path id="Vector_21" d="M112.26 385.93H728.07" stroke="#5C74BF" stroke-miterlimit="10"/>
<path id="Vector_22" d="M703.08 367.2H137.47" stroke="#5C74BF" stroke-miterlimit="10"/>
<path id="Vector_23" d="M158.96 351.08H681.39" stroke="#5C74BF" stroke-miterlimit="10"/>
<path id="Vector_24" d="M663.37 337.57H177.08" stroke="#5C74BF" stroke-miterlimit="10"/>
<path id="Vector_25" d="M193.35 325.42L647.57 325.65" stroke="#5C74BF" stroke-miterlimit="10"/>
<path id="Vector_26" d="M633.6 315.21H207.21" stroke="#5C74BF" stroke-miterlimit="10"/>
<path id="Vector_27" d="M177.42 405.45L278.8 -5L369.2 411.8L177.42 405.45Z" fill="#233E98"/>
<g id="Group">
<path id="Vector_28" d="M177.42 405.45L278.8 -5L369.2 411.8L177.42 405.45Z" fill="#091D49"/>
</g>
<path id="Vector_29" d="M278.8 -5L457.81 343.48L369.2 411.8L278.8 -5Z" fill="#ED3331"/>
<path id="Vector_30" d="M298.63 429.95L379.26 103.5L451.16 435L298.63 429.95Z" fill="#233E98"/>
<path id="Vector_31" d="M379.26 103.5L521.65 380.67L451.16 435L379.26 103.5Z" fill="#ED3331"/>
<path id="Vector_32" d="M470.83 325C470.19 317.24 453.1 308.19 452.73 307.87C441.73 312.01 436.64 327.37 441.36 342.72C445.52 356.22 455.93 365.29 466.1 365.21L467.02 364.51C478.49 356.11 471.49 332.8 470.83 325Z" fill="#091D49"/>
<path id="Vector_33" d="M483.15 329.33C478.31 313.63 465.04 303.91 453.5 307.61C453.24 307.69 452.98 307.79 452.73 307.89C453.1 308.21 470.19 317.26 470.83 325.02C471.47 332.78 478.44 356.11 467.02 364.53L466.1 365.23C467.77 365.226 469.429 364.966 471.02 364.46C482.55 360.76 487.99 345 483.15 329.33Z" fill="#233E98"/>
<path id="Vector_34" d="M534.68 117.95C567.121 117.95 593.42 91.6512 593.42 59.21C593.42 26.7688 567.121 0.470001 534.68 0.470001C502.239 0.470001 475.94 26.7688 475.94 59.21C475.94 91.6512 502.239 117.95 534.68 117.95Z" fill="#ED3331"/>
</g>
</g>
</g>
<defs>
<clipPath id="clip0">
<rect width="842.65" height="475.5" fill="white"/>
</clipPath>
</defs>
</svg>
