<svg width="67" height="23" viewBox="0 0 67 23" fill="none" xmlns="http://www.w3.org/2000/svg">
<g id="Icon ionic-ios-menu 1" clip-path="url(#clip0)">
<g id="Icon ionic-ios-menu">
<path id="Path 1" d="M63.455 5.518H2.759C2.02792 5.51589 1.32738 5.22453 0.810424 4.70758C0.293468 4.19062 0.00211068 3.49008 0 2.759V2.759C0.00211068 2.02792 0.293468 1.32738 0.810424 0.810424C1.32738 0.293468 2.02792 0.00211068 2.759 0H63.459C64.1901 0.00211068 64.8906 0.293468 65.4076 0.810424C65.9245 1.32738 66.2159 2.02792 66.218 2.759V2.759C66.2159 3.49077 65.924 4.19191 65.4062 4.70898C64.8883 5.22605 64.1868 5.51694 63.455 5.518V5.518Z" fill="black"/>
<path id="Path 2" d="M63.455 22.071H2.759C2.02792 22.0689 1.32738 21.7775 0.810424 21.2606C0.293468 20.7436 0.00211068 20.0431 0 19.312V19.312C0.00211068 18.5809 0.293468 17.8804 0.810424 17.3634C1.32738 16.8465 2.02792 16.5551 2.759 16.553H63.459C64.1901 16.5551 64.8906 16.8465 65.4076 17.3634C65.9245 17.8804 66.2159 18.5809 66.218 19.312V19.312C66.2159 20.0438 65.924 20.7449 65.4062 21.262C64.8883 21.779 64.1868 22.0699 63.455 22.071V22.071Z" fill="black"/>
</g>
</g>
<defs>
<clipPath id="clip0">
<rect width="66.214" height="22.071" fill="white"/>
</clipPath>
</defs>
</svg>
