<svg xmlns="http://www.w3.org/2000/svg" xmlns:xlink="http://www.w3.org/1999/xlink" width="1087" height="850" viewBox="0 0 1087 850">
  <defs>
    <linearGradient id="linear-gradient" x1="0.658" y1="-0.266" x2="0.405" y2="0.961" gradientUnits="objectBoundingBox">
      <stop offset="0" stop-color="#383a5f"/>
      <stop offset="1" stop-color="#171223"/>
    </linearGradient>
    <linearGradient id="linear-gradient-2" x1="1.518" y1="-0.301" x2="0.257" y2="0.698" gradientUnits="objectBoundingBox">
      <stop offset="0.005" stop-color="#7bfabb"/>
      <stop offset="0.058" stop-color="#71dfae"/>
      <stop offset="0.21" stop-color="#59998c"/>
      <stop offset="0.336" stop-color="#476573"/>
      <stop offset="0.431" stop-color="#3c4564"/>
      <stop offset="0.484" stop-color="#383a5f"/>
      <stop offset="1" stop-color="#171223"/>
    </linearGradient>
    <linearGradient id="linear-gradient-3" x1="-0.175" y1="1.293" x2="0.429" y2="0.567" xlink:href="#linear-gradient-2"/>
    <linearGradient id="linear-gradient-4" x1="1.133" y1="0.141" x2="0.063" y2="0.764" xlink:href="#linear-gradient-2"/>
    <linearGradient id="linear-gradient-5" x1="-1.003" y1="1.402" x2="3.245" y2="-1.251" xlink:href="#linear-gradient-2"/>
    <radialGradient id="radial-gradient" cx="0.044" cy="0.684" r="2.308" gradientTransform="translate(0)" gradientUnits="objectBoundingBox">
      <stop offset="0.005" stop-color="#7bfabb"/>
      <stop offset="0.044" stop-color="#71dfae"/>
      <stop offset="0.155" stop-color="#59998c"/>
      <stop offset="0.247" stop-color="#476573"/>
      <stop offset="0.317" stop-color="#3c4564"/>
      <stop offset="0.355" stop-color="#383a5f"/>
      <stop offset="1" stop-color="#171223"/>
    </radialGradient>
  </defs>
  <g id="Group_62" data-name="Group 62" transform="translate(-434 -4669)">
    <rect id="Rectangle_56" data-name="Rectangle 56" width="444" height="704" transform="translate(434 4768)" fill="url(#linear-gradient)"/>
    <rect id="Rectangle_57" data-name="Rectangle 57" width="643" height="850" transform="translate(878 4669)" fill="#383a5f"/>
    <text id="Resources_Operation_Executive" data-name="Resources
Operation
Executive" transform="translate(926 4829.089)" fill="#fff" font-size="59.919" font-family="SegoeUI, Segoe UI"><tspan x="0" y="0">Resources</tspan><tspan x="0" y="71.903">Operation</tspan><tspan x="0" y="143.805">Executive</tspan></text>
    <text id="_Job_Description_" data-name=" Job Description " transform="translate(930.959 5025.458)" fill="#b8f1f4" font-size="28" font-family="Roboto-Thin, Roboto" font-weight="200"><tspan x="0" y="0" xml:space="preserve"> Job Description </tspan></text>
    <rect id="Rectangle_58" data-name="Rectangle 58" width="384" height="20" transform="translate(931 4742)" fill="#b8f1f4"/>
    <text id="Với_vị_trí_Resources_Operation_Executive_chúng_tôi_luôn_tìm_kiếm_các_bạn_trẻ_với_tinh_thần_trách_nhiệm_cao_đã_có_kinh_nghiệm_trong_lĩnh_vực_Tài_Chính_-_Hậu_Cần._Công_việc_của_các_bạn_bao_gồm:_Phối_hợp_cùng_các_phòng_ban_khác_để_điều_phối_tài_nguyên_" data-name="Với vị trí Resources Operation Executive, chúng tôi luôn tìm kiếm các bạn trẻ với tinh thần trách nhiệm cao, đã có kinh nghiệm trong lĩnh vực Tài Chính - Hậu Cần. Công việc của các bạn bao gồm:

   Phối hợp cùng các phòng ban khác để điều phối tài nguyên, " transform="translate(947.265 5041.198)" fill="#fff" font-size="19" font-family="Roboto-Thin, Roboto" font-weight="200"><tspan x="0" y="20">Với vị trí Resources Operation Executive, chúng tôi luôn </tspan><tspan x="0" y="42.8">tìm kiếm các bạn trẻ với tinh thần trách nhiệm cao, đã </tspan><tspan x="0" y="65.6">có kinh nghiệm trong lĩnh vực Tài Chính - Hậu Cần. Công </tspan><tspan x="0" y="88.4">việc của các bạn bao gồm:</tspan><tspan x="0" y="111.2"></tspan><tspan x="0" y="134" xml:space="preserve">   Phối hợp cùng các phòng ban khác để điều phối tài </tspan><tspan x="0" y="156.8">nguyên, xây dựng, triển khai các phần chương trình</tspan><tspan x="0" y="179.6"></tspan><tspan x="0" y="202.4" xml:space="preserve">   Tài chính: xây dựng dự trù kinh phí, quản lý tài chính, </tspan><tspan x="0" y="225.2">báo cáo, kiểm kê sổ sách/hóa đơn/các loại thuế/chi phí </tspan><tspan x="0" y="248">và nguồn thu xuyên suốt toàn bộ chương trình</tspan><tspan x="0" y="270.8"></tspan><tspan x="0" y="293.6" xml:space="preserve">   Hậu cần: quản lý hậu cần, các nguồn vật dụng, tài sản </tspan><tspan x="0" y="316.4">chung; điều phối sử dụng và bảo quản tài sản chung của </tspan><tspan x="0" y="339.2">cuộc thi</tspan><tspan x="0" y="362"></tspan><tspan font-family="Roboto-Thin"><tspan x="0" y="384.8"></tspan></tspan></text>
    <g id="Group_58" data-name="Group 58">
      <path id="Path_137" data-name="Path 137" d="M456.849,5059.494l25.594-16.636,10.548-57.967L463.315,5009Z" fill="url(#linear-gradient-2)"/>
      <path id="Path_138" data-name="Path 138" d="M456.849,5059.494l100.993,18.111,29.614-13.618-105.014-21.129Z" fill="url(#linear-gradient-3)"/>
      <path id="Path_139" data-name="Path 139" d="M492.991,4984.891l-10.548,57.967,105.014,21.129,6.981-46.841Z" fill="url(#linear-gradient-4)"/>
      <path id="Path_140" data-name="Path 140" d="M466.631,5043.729l3.062-28.425,12.357-8.241-4.664,28.1Z" fill="url(#linear-gradient-5)"/>
    </g>
    <circle id="Ellipse_31" data-name="Ellipse 31" cx="112.231" cy="112.231" r="112.231" transform="translate(612.623 5093.538)" fill="url(#radial-gradient)"/>
    <path id="Path_141" data-name="Path 141" d="M837.086,5193.438,716.268,4831.754,612.623,5193.438" fill="none" stroke="#fff" stroke-miterlimit="10" stroke-width="1"/>
    <path id="Path_142" data-name="Path 142" d="M695.9,5097.315l20.363-265.561,23.65,399.819" fill="none" stroke="#fff" stroke-miterlimit="10" stroke-width="1"/>
    <path id="Path_143" data-name="Path 143" d="M528.36,5000.349c0,7.81,1.041-2.754,1.041-2.754l-19.226,50.843-28.124,15.576,2.718.487,22.732-17.318,24.2-49.983-4.646-1.477-14.194,53.256-25.832,15.928" fill="none" stroke="#fff" stroke-miterlimit="10" stroke-width="1"/>
    <path id="Path_144" data-name="Path 144" d="M584.815,4767.735v246.352l-16.024,46.145,2.241.451,1.116.225L581.392,5013l4.76,1.514-11.988,46.8-23.455,15.013,2.015.361L572.609,5061l-4.42-.89-14.4,16.768" fill="none" stroke="#fff" stroke-miterlimit="10" stroke-width="1"/>
    <line id="Line_1" data-name="Line 1" x1="0.378" y1="220.306" transform="translate(506.5 4769)" fill="none" stroke="#fff" stroke-miterlimit="10" stroke-width="1"/>
    <line id="Line_2" data-name="Line 2" y1="63.754" transform="translate(716.268 4768)" fill="none" stroke="#fff" stroke-miterlimit="10" stroke-width="1"/>
  </g>
</svg>
