<svg xmlns="http://www.w3.org/2000/svg" xmlns:xlink="http://www.w3.org/1999/xlink" width="1087" height="850" viewBox="0 0 1087 850">
  <defs>
    <linearGradient id="linear-gradient" x1="0.658" y1="-0.266" x2="0.405" y2="0.961" gradientUnits="objectBoundingBox">
      <stop offset="0" stop-color="#383a5f"/>
      <stop offset="1" stop-color="#171223"/>
    </linearGradient>
    <clipPath id="clip-path">
      <rect id="Rectangle_23" data-name="Rectangle 23" width="444" height="704" transform="translate(434 682)" fill="none"/>
    </clipPath>
    <linearGradient id="linear-gradient-2" y1="0.5" x2="1" y2="0.5" gradientUnits="objectBoundingBox">
      <stop offset="0" stop-color="#7bfabb"/>
      <stop offset="0.109" stop-color="#71dfae"/>
      <stop offset="0.423" stop-color="#59998c"/>
      <stop offset="0.685" stop-color="#476573"/>
      <stop offset="0.882" stop-color="#3c4564"/>
      <stop offset="0.991" stop-color="#383a5f"/>
    </linearGradient>
    <linearGradient id="linear-gradient-4" x1="0.142" y1="0.5" x2="0.858" y2="0.5" xlink:href="#linear-gradient-2"/>
    <linearGradient id="linear-gradient-5" x1="-31.841" y1="0.5" x2="32.841" y2="0.5" xlink:href="#linear-gradient-2"/>
    <linearGradient id="linear-gradient-6" x1="0.839" y1="-0.142" x2="0.15" y2="1.162" gradientUnits="objectBoundingBox">
      <stop offset="0.005" stop-color="#7bfabb"/>
      <stop offset="0.028" stop-color="#71dfae"/>
      <stop offset="0.094" stop-color="#59998c"/>
      <stop offset="0.149" stop-color="#476573"/>
      <stop offset="0.19" stop-color="#3c4564"/>
      <stop offset="0.213" stop-color="#383a5f"/>
      <stop offset="1" stop-color="#171223"/>
    </linearGradient>
    <linearGradient id="linear-gradient-7" x1="0.549" y1="0.891" x2="0.943" y2="0.284" xlink:href="#linear-gradient"/>
    <linearGradient id="linear-gradient-8" x1="0.912" y1="0.949" x2="-0.264" y2="0.37" xlink:href="#linear-gradient"/>
    <linearGradient id="linear-gradient-9" x1="0.522" y1="1.073" x2="0.49" y2="0.249" xlink:href="#linear-gradient"/>
    <radialGradient id="radial-gradient" cx="0.574" cy="-0.016" r="0.999" gradientTransform="translate(0)" xlink:href="#linear-gradient"/>
    <linearGradient id="linear-gradient-16" x1="0.483" y1="1.367" x2="0.508" y2="0.07" xlink:href="#linear-gradient-2"/>
    <linearGradient id="linear-gradient-17" x1="0.493" y1="1.347" x2="0.519" y2="0.05" xlink:href="#linear-gradient-2"/>
    <linearGradient id="linear-gradient-18" x1="0.478" y1="2.182" x2="0.507" y2="-0.015" xlink:href="#linear-gradient-2"/>
    <linearGradient id="linear-gradient-19" x1="0.485" y1="2.169" x2="0.513" y2="-0.028" xlink:href="#linear-gradient-2"/>
    <linearGradient id="linear-gradient-20" x1="0.481" y1="1.359" x2="0.507" y2="0.169" xlink:href="#linear-gradient-2"/>
    <linearGradient id="linear-gradient-21" x1="0.492" y1="1.336" x2="0.519" y2="0.146" xlink:href="#linear-gradient-2"/>
    <linearGradient id="linear-gradient-22" x1="0.419" y1="-1.913" x2="0.604" y2="4.729" xlink:href="#linear-gradient"/>
    <linearGradient id="linear-gradient-23" x1="0.434" y1="-1.885" x2="0.619" y2="4.758" xlink:href="#linear-gradient"/>
    <linearGradient id="linear-gradient-24" x1="0.438" y1="1.665" x2="0.545" y2="-0.334" xlink:href="#linear-gradient-2"/>
    <linearGradient id="linear-gradient-25" x1="0.467" y1="1.611" x2="0.574" y2="-0.388" xlink:href="#linear-gradient-2"/>
    <linearGradient id="linear-gradient-26" x1="0.419" y1="1.589" x2="0.526" y2="0.146" xlink:href="#linear-gradient-2"/>
    <linearGradient id="linear-gradient-27" x1="0.461" y1="1.515" x2="0.568" y2="0.072" xlink:href="#linear-gradient-2"/>
    <linearGradient id="linear-gradient-28" x1="0.51" y1="1.656" x2="0.483" y2="-0.09" xlink:href="#linear-gradient-2"/>
    <linearGradient id="linear-gradient-29" x1="0.518" y1="1.672" x2="0.491" y2="-0.074" xlink:href="#linear-gradient-2"/>
    <linearGradient id="linear-gradient-30" x1="2.287" y1="0.32" x2="-1.266" y2="0.649" gradientUnits="objectBoundingBox">
      <stop offset="0.005" stop-color="#7bfabb"/>
      <stop offset="0.044" stop-color="#71dfae"/>
      <stop offset="0.155" stop-color="#59998c"/>
      <stop offset="0.247" stop-color="#476573"/>
      <stop offset="0.317" stop-color="#3c4564"/>
      <stop offset="0.355" stop-color="#383a5f"/>
      <stop offset="1" stop-color="#171223"/>
    </linearGradient>
    <linearGradient id="linear-gradient-31" x1="-7.442" y1="-0.073" x2="-10.647" y2="0.847" xlink:href="#linear-gradient"/>
    <linearGradient id="linear-gradient-32" x1="3.269" y1="-0.134" x2="-2.229" y2="1.125" gradientUnits="objectBoundingBox">
      <stop offset="0" stop-color="#7bfabb"/>
      <stop offset="0.086" stop-color="#78f3b7"/>
      <stop offset="0.208" stop-color="#72e0ae"/>
      <stop offset="0.353" stop-color="#67c1a0"/>
      <stop offset="0.514" stop-color="#58978b"/>
      <stop offset="0.686" stop-color="#456071"/>
      <stop offset="0.798" stop-color="#383a5f"/>
    </linearGradient>
    <linearGradient id="linear-gradient-33" x1="3.762" y1="-0.247" x2="-1.736" y2="1.012" xlink:href="#linear-gradient-32"/>
    <linearGradient id="linear-gradient-34" x1="4.152" y1="-0.336" x2="-1.346" y2="0.923" xlink:href="#linear-gradient-32"/>
    <linearGradient id="linear-gradient-35" x1="-3.333" y1="-0.314" x2="-3.753" y2="0.286" xlink:href="#linear-gradient"/>
    <linearGradient id="linear-gradient-36" x1="-3.432" y1="1.119" x2="-2.301" y2="0.054" xlink:href="#linear-gradient"/>
    <linearGradient id="linear-gradient-37" x1="1.124" y1="-0.006" x2="0.208" y2="0.7" gradientUnits="objectBoundingBox">
      <stop offset="0.005" stop-color="#7bfabb"/>
      <stop offset="0.015" stop-color="#71e0ae"/>
      <stop offset="0.034" stop-color="#62b499"/>
      <stop offset="0.054" stop-color="#558e87"/>
      <stop offset="0.075" stop-color="#4a6f78"/>
      <stop offset="0.097" stop-color="#42586d"/>
      <stop offset="0.12" stop-color="#3c4765"/>
      <stop offset="0.145" stop-color="#393d60"/>
      <stop offset="0.177" stop-color="#383a5f"/>
      <stop offset="1" stop-color="#171223"/>
    </linearGradient>
    <linearGradient id="linear-gradient-38" x1="-21.953" y1="0.817" x2="-17.505" y2="0.106" xlink:href="#linear-gradient"/>
    <linearGradient id="linear-gradient-39" x1="0.873" y1="-0.376" x2="0.148" y2="1.33" gradientUnits="objectBoundingBox">
      <stop offset="0.005" stop-color="#7bfabb"/>
      <stop offset="0.058" stop-color="#71dfae"/>
      <stop offset="0.21" stop-color="#59998c"/>
      <stop offset="0.336" stop-color="#476573"/>
      <stop offset="0.431" stop-color="#3c4564"/>
      <stop offset="0.484" stop-color="#383a5f"/>
      <stop offset="1" stop-color="#171223"/>
    </linearGradient>
    <linearGradient id="linear-gradient-40" x1="-4.195" y1="1.119" x2="-3.065" y2="0.054" xlink:href="#linear-gradient"/>
    <linearGradient id="linear-gradient-41" x1="-0.182" y1="1.091" x2="1.068" y2="0.007" xlink:href="#linear-gradient-2"/>
    <linearGradient id="linear-gradient-42" x1="-0.182" y1="1.091" x2="1.128" y2="-0.045" gradientUnits="objectBoundingBox">
      <stop offset="0" stop-color="#7bfabb"/>
      <stop offset="0.103" stop-color="#74e8b2"/>
      <stop offset="0.309" stop-color="#64ba9c"/>
      <stop offset="0.596" stop-color="#4b7179"/>
      <stop offset="0.798" stop-color="#383a5f"/>
    </linearGradient>
    <linearGradient id="linear-gradient-43" x1="-0.174" y1="1.085" x2="1.128" y2="-0.044" gradientUnits="objectBoundingBox">
      <stop offset="0" stop-color="#7bfabb"/>
      <stop offset="0.089" stop-color="#77f0b6"/>
      <stop offset="0.237" stop-color="#6fd7aa"/>
      <stop offset="0.424" stop-color="#60af97"/>
      <stop offset="0.642" stop-color="#4d777c"/>
      <stop offset="0.854" stop-color="#383a5f"/>
    </linearGradient>
    <linearGradient id="linear-gradient-44" x1="-0.182" y1="1.091" x2="1.093" y2="-0.014" gradientUnits="objectBoundingBox">
      <stop offset="0" stop-color="#7bfabb"/>
      <stop offset="0.093" stop-color="#78f3b8"/>
      <stop offset="0.217" stop-color="#72e2af"/>
      <stop offset="0.36" stop-color="#69c6a2"/>
      <stop offset="0.516" stop-color="#5b9f8f"/>
      <stop offset="0.68" stop-color="#4a6e78"/>
      <stop offset="0.832" stop-color="#383a5f"/>
    </linearGradient>
    <linearGradient id="linear-gradient-45" x1="-0.182" y1="1.091" x2="1.094" y2="-0.015" gradientUnits="objectBoundingBox">
      <stop offset="0" stop-color="#7bfabb"/>
      <stop offset="0.105" stop-color="#76ebb4"/>
      <stop offset="0.304" stop-color="#68c6a2"/>
      <stop offset="0.576" stop-color="#538985"/>
      <stop offset="0.895" stop-color="#383a5f"/>
    </linearGradient>
    <linearGradient id="linear-gradient-46" x1="-0.182" y1="1.091" x2="1.112" y2="-0.03" gradientUnits="objectBoundingBox">
      <stop offset="0" stop-color="#7bfabb"/>
      <stop offset="0.119" stop-color="#79f6b9"/>
      <stop offset="0.234" stop-color="#75eab3"/>
      <stop offset="0.348" stop-color="#6ed6aa"/>
      <stop offset="0.462" stop-color="#65bb9c"/>
      <stop offset="0.575" stop-color="#58978c"/>
      <stop offset="0.686" stop-color="#496c77"/>
      <stop offset="0.796" stop-color="#383a5f"/>
      <stop offset="0.798" stop-color="#383a5f"/>
    </linearGradient>
    <linearGradient id="linear-gradient-47" x1="-103.537" y1="1.34" x2="-103.526" y2="0.681" xlink:href="#linear-gradient"/>
    <linearGradient id="linear-gradient-53" x1="-4.98" y1="-0.412" x2="-4.93" y2="1.422" xlink:href="#linear-gradient-39"/>
    <linearGradient id="linear-gradient-54" x1="0.129" y1="0.902" x2="0.679" y2="0.307" xlink:href="#linear-gradient"/>
    <linearGradient id="linear-gradient-55" x1="-6.846" y1="0.086" x2="-7.971" y2="1.213" xlink:href="#linear-gradient"/>
    <linearGradient id="linear-gradient-56" x1="-3.96" y1="-0.125" x2="-7.093" y2="0.795" xlink:href="#linear-gradient"/>
    <linearGradient id="linear-gradient-57" x1="-5.884" y1="0.544" x2="-3.086" y2="0.482" xlink:href="#linear-gradient"/>
    <linearGradient id="linear-gradient-58" x1="1.486" y1="-0.19" x2="0.036" y2="0.819" gradientUnits="objectBoundingBox">
      <stop offset="0.005" stop-color="#7bfabb"/>
      <stop offset="0.06" stop-color="#71dfae"/>
      <stop offset="0.216" stop-color="#59998c"/>
      <stop offset="0.346" stop-color="#476573"/>
      <stop offset="0.443" stop-color="#3c4564"/>
      <stop offset="0.497" stop-color="#383a5f"/>
      <stop offset="1" stop-color="#171223"/>
    </linearGradient>
    <linearGradient id="linear-gradient-59" x1="0.84" y1="-0.228" x2="0.135" y2="1.283" xlink:href="#linear-gradient-32"/>
    <linearGradient id="linear-gradient-60" x1="0.857" y1="-0.265" x2="0.152" y2="1.246" gradientUnits="objectBoundingBox">
      <stop offset="0" stop-color="#7bfabb"/>
      <stop offset="0.095" stop-color="#75ebb3"/>
      <stop offset="0.278" stop-color="#68c3a1"/>
      <stop offset="0.529" stop-color="#528482"/>
      <stop offset="0.798" stop-color="#383a5f"/>
    </linearGradient>
    <linearGradient id="linear-gradient-61" x1="0.863" y1="-0.278" x2="0.158" y2="1.233" gradientUnits="objectBoundingBox">
      <stop offset="0" stop-color="#7bfabb"/>
      <stop offset="0.084" stop-color="#78f2b7"/>
      <stop offset="0.212" stop-color="#70dcad"/>
      <stop offset="0.368" stop-color="#64ba9c"/>
      <stop offset="0.547" stop-color="#538985"/>
      <stop offset="0.743" stop-color="#3e4c67"/>
      <stop offset="0.798" stop-color="#383a5f"/>
    </linearGradient>
    <linearGradient id="linear-gradient-62" x1="0.569" y1="1.132" x2="0.462" y2="-0.062" xlink:href="#linear-gradient-32"/>
    <linearGradient id="linear-gradient-63" x1="0.574" y1="1.338" x2="0.466" y2="-0.196" xlink:href="#linear-gradient-32"/>
  </defs>
  <g id="Layer_2" data-name="Layer 2" transform="translate(-434 -609)">
    <rect id="Rectangle_2" data-name="Rectangle 2" width="444" height="704" transform="translate(434 682)" fill="url(#linear-gradient)"/>
    <g id="Group_20" data-name="Group 20">
      <g id="Group_19" data-name="Group 19" clip-path="url(#clip-path)">
        <g id="Group_13" data-name="Group 13">
          <g id="Group_1" data-name="Group 1">
            <rect id="Rectangle_3" data-name="Rectangle 3" width="263.807" height="2.929" transform="translate(362.537 851.176)" fill="url(#linear-gradient-2)"/>
          </g>
          <g id="Group_2" data-name="Group 2">
            <rect id="Rectangle_4" data-name="Rectangle 4" width="2.929" height="243.236" transform="translate(492.389 728.15)" fill="url(#linear-gradient-2)"/>
          </g>
          <g id="Group_3" data-name="Group 3">
            <rect id="Rectangle_5" data-name="Rectangle 5" width="261.745" height="2.929" transform="translate(401.081 946.975) rotate(-45.003)" fill="url(#linear-gradient-4)"/>
          </g>
          <g id="Group_4" data-name="Group 4">
            <rect id="Rectangle_6" data-name="Rectangle 6" width="2.929" height="264.98" transform="translate(400.376 766.967) rotate(-45)" fill="url(#linear-gradient-5)"/>
          </g>
          <g id="Group_5" data-name="Group 5">
            <path id="Path_1" data-name="Path 1" d="M493.853,994.319a141.68,141.68,0,1,1,100.182-41.5A140.75,140.75,0,0,1,493.853,994.319Zm0-268.668a126.988,126.988,0,1,0,89.8,37.194A126.158,126.158,0,0,0,493.853,725.651Z" fill="url(#linear-gradient-6)"/>
          </g>
          <path id="Path_2" data-name="Path 2" d="M493.853,852.64l-58.7,272.3,58.7-18.245Z" fill="url(#linear-gradient-7)"/>
          <path id="Path_3" data-name="Path 3" d="M493.853,852.64l61.71,204.043L493.853,1073Z" fill="url(#linear-gradient-8)"/>
          <circle id="Ellipse_1" data-name="Ellipse 1" cx="28.579" cy="28.579" r="28.579" transform="translate(465.274 699.571)" fill="url(#linear-gradient-9)"/>
          <circle id="Ellipse_2" data-name="Ellipse 2" cx="28.579" cy="28.579" r="28.579" transform="translate(381.543 734.344)" fill="url(#linear-gradient-9)"/>
          <circle id="Ellipse_3" data-name="Ellipse 3" cx="28.579" cy="28.579" r="28.579" transform="translate(465.274 828.871)" fill="url(#radial-gradient)"/>
          <circle id="Ellipse_4" data-name="Ellipse 4" cx="28.579" cy="28.579" r="28.579" transform="translate(558.613 734.344)" fill="url(#linear-gradient-9)"/>
          <circle id="Ellipse_5" data-name="Ellipse 5" cx="28.579" cy="28.579" r="28.579" transform="translate(333.958 824.061)" fill="url(#linear-gradient-9)"/>
          <circle id="Ellipse_6" data-name="Ellipse 6" cx="28.579" cy="28.579" r="28.579" transform="translate(592.263 824.061)" fill="url(#linear-gradient-9)"/>
          <circle id="Ellipse_7" data-name="Ellipse 7" cx="28.579" cy="28.579" r="28.579" transform="translate(373.765 924.721)" fill="url(#linear-gradient-9)"/>
          <circle id="Ellipse_8" data-name="Ellipse 8" cx="28.579" cy="28.579" r="28.579" transform="translate(558.613 924.721)" fill="url(#linear-gradient-9)"/>
          <g id="Group_6" data-name="Group 6">
            <path id="Path_4" data-name="Path 4" d="M384.639,850.841a22.1,22.1,0,0,0-20.513-21.652v21.652Z" fill="url(#linear-gradient-16)"/>
            <path id="Path_5" data-name="Path 5" d="M360.948,829.189a22.106,22.106,0,0,0-20.513,21.652h20.513Z" fill="url(#linear-gradient-17)"/>
          </g>
          <g id="Group_7" data-name="Group 7">
            <path id="Path_6" data-name="Path 6" d="M642.944,850.841a22.1,22.1,0,0,0-20.513-21.652v21.652Z" fill="url(#linear-gradient-18)"/>
            <path id="Path_7" data-name="Path 7" d="M619.254,829.189a22.1,22.1,0,0,0-20.513,21.652h20.513Z" fill="url(#linear-gradient-19)"/>
          </g>
          <g id="Group_8" data-name="Group 8">
            <path id="Path_8" data-name="Path 8" d="M424.445,953.3a22.1,22.1,0,0,0-20.512-21.652V953.3Z" fill="url(#linear-gradient-20)"/>
            <path id="Path_9" data-name="Path 9" d="M400.755,931.649A22.1,22.1,0,0,0,380.242,953.3h20.513Z" fill="url(#linear-gradient-21)"/>
          </g>
          <g id="Group_9" data-name="Group 9">
            <path id="Path_10" data-name="Path 10" d="M609.294,953.3a22.1,22.1,0,0,0-20.513-21.652V953.3Z" fill="url(#linear-gradient-22)"/>
            <path id="Path_11" data-name="Path 11" d="M585.6,931.649A22.1,22.1,0,0,0,565.091,953.3H585.6Z" fill="url(#linear-gradient-23)"/>
          </g>
          <g id="Group_10" data-name="Group 10">
            <path id="Path_12" data-name="Path 12" d="M430.528,760.27a22.1,22.1,0,0,0-20.513-21.651V760.27Z" fill="url(#linear-gradient-24)"/>
            <path id="Path_13" data-name="Path 13" d="M406.837,738.619a22.1,22.1,0,0,0-20.512,21.651h20.512Z" fill="url(#linear-gradient-25)"/>
          </g>
          <g id="Group_11" data-name="Group 11">
            <path id="Path_14" data-name="Path 14" d="M609.294,760.27a22.1,22.1,0,0,0-20.513-21.651V760.27Z" fill="url(#linear-gradient-26)"/>
            <path id="Path_15" data-name="Path 15" d="M585.6,738.619a22.1,22.1,0,0,0-20.513,21.651H585.6Z" fill="url(#linear-gradient-27)"/>
          </g>
          <g id="Group_12" data-name="Group 12">
            <path id="Path_16" data-name="Path 16" d="M515.955,725.651A22.107,22.107,0,0,0,495.442,704v21.652Z" fill="url(#linear-gradient-28)"/>
            <path id="Path_17" data-name="Path 17" d="M492.264,704a22.106,22.106,0,0,0-20.513,21.652h20.513Z" fill="url(#linear-gradient-29)"/>
          </g>
        </g>
        <g id="Group_14" data-name="Group 14">
          <path id="Path_18" data-name="Path 18" d="M652.539,846.442l47.9,35.71v287.419L644.7,1183.762Z" fill="url(#linear-gradient-30)"/>
          <path id="Path_19" data-name="Path 19" d="M571.539,879.539l81-33.1-7.839,337.32-73.161-2.869Z" fill="url(#linear-gradient-31)"/>
          <rect id="Rectangle_7" data-name="Rectangle 7" width="10.381" height="120.357" transform="translate(639.28 1003.468) rotate(-180)" fill="url(#linear-gradient-32)"/>
          <rect id="Rectangle_8" data-name="Rectangle 8" width="10.381" height="120.357" transform="translate(616.999 1010.591) rotate(-180)" fill="url(#linear-gradient-33)"/>
          <rect id="Rectangle_9" data-name="Rectangle 9" width="10.381" height="120.357" transform="translate(595.179 1014.634) rotate(-180)" fill="url(#linear-gradient-34)"/>
        </g>
        <g id="Group_16" data-name="Group 16">
          <g id="Group_15" data-name="Group 15">
            <path id="Path_20" data-name="Path 20" d="M570.1,1387.865l-90.437-40.3H651.317Z" fill="url(#linear-gradient-35)"/>
            <path id="Path_21" data-name="Path 21" d="M716.563,1146.2v201.365h-236.9S511.645,1150.939,716.563,1146.2Z" fill="url(#linear-gradient-36)"/>
            <path id="Path_22" data-name="Path 22" d="M791.152,1201.09V1024.175L710.4,1042.637v187.238Z" fill="url(#linear-gradient-37)"/>
            <path id="Path_23" data-name="Path 23" d="M710.4,1042.637l-46.062-18.462V1255l46.062-25.125Z" fill="url(#linear-gradient-38)"/>
            <path id="Path_24" data-name="Path 24" d="M791.152,1024.175l-68.446-18.634-58.369,18.634,46.062,18.462Z" fill="url(#linear-gradient-39)"/>
            <rect id="Rectangle_10" data-name="Rectangle 10" width="3.2" height="181.005" transform="translate(779.722 1205.18) rotate(-180)" fill="#171223"/>
            <rect id="Rectangle_11" data-name="Rectangle 11" width="3.2" height="181.005" transform="translate(763.828 1207.903) rotate(-180)" fill="#171223"/>
            <rect id="Rectangle_12" data-name="Rectangle 12" width="3.2" height="181.005" transform="translate(747.104 1211.403) rotate(-180)" fill="#171223"/>
            <rect id="Rectangle_13" data-name="Rectangle 13" width="3.2" height="181.005" transform="translate(729.345 1214.904) rotate(-180)" fill="#171223"/>
            <path id="Path_25" data-name="Path 25" d="M807,1186.5v201.364H570.1S602.082,1191.239,807,1186.5Z" fill="url(#linear-gradient-40)"/>
            <rect id="Rectangle_14" data-name="Rectangle 14" width="15.894" height="26.447" transform="translate(734.092 1245.039) rotate(-180)" fill="url(#linear-gradient-41)"/>
            <rect id="Rectangle_15" data-name="Rectangle 15" width="15.894" height="26.447" transform="translate(758.723 1245.039) rotate(-180)" fill="url(#linear-gradient-42)"/>
            <rect id="Rectangle_16" data-name="Rectangle 16" width="15.894" height="26.447" transform="translate(784.379 1245.039) rotate(-180)" fill="url(#linear-gradient-43)"/>
            <rect id="Rectangle_17" data-name="Rectangle 17" width="15.894" height="26.447" transform="translate(709.344 1279.504) rotate(-180)" fill="url(#linear-gradient-44)"/>
            <rect id="Rectangle_18" data-name="Rectangle 18" width="15.894" height="26.447" transform="translate(734.092 1279.504) rotate(-180)" fill="url(#linear-gradient-45)"/>
            <rect id="Rectangle_19" data-name="Rectangle 19" width="15.894" height="26.447" transform="translate(758.723 1279.504) rotate(-180)" fill="url(#linear-gradient-46)"/>
          </g>
          <path id="Path_26" data-name="Path 26" d="M695.823,1047.653l9.428,5.343v11.314l-9.428-4.714Z" fill="url(#linear-gradient-47)"/>
          <path id="Path_27" data-name="Path 27" d="M695.823,1064.31l9.428,5.343v11.314l-9.428-4.714Z" fill="url(#linear-gradient-47)"/>
          <path id="Path_28" data-name="Path 28" d="M695.823,1081.365l9.428,5.343v11.314l-9.428-4.714Z" fill="url(#linear-gradient-47)"/>
          <path id="Path_29" data-name="Path 29" d="M695.823,1098.021l9.428,5.343v11.314l-9.428-4.714Z" fill="url(#linear-gradient-47)"/>
          <path id="Path_30" data-name="Path 30" d="M695.823,1117.4l9.428,5.343v11.314l-9.428-4.714Z" fill="url(#linear-gradient-47)"/>
          <path id="Path_31" data-name="Path 31" d="M695.823,1134.057l9.428,5.343v11.314L695.823,1146Z" fill="url(#linear-gradient-47)"/>
        </g>
        <g id="Group_17" data-name="Group 17">
          <path id="Path_32" data-name="Path 32" d="M537.813,1014.819l53.3,27.639,93.774,355.352-100.607,17.68Z" fill="url(#linear-gradient-53)"/>
          <path id="Path_33" data-name="Path 33" d="M523.007,1014.819h14.806l46.469,400.671H534.366Z" fill="url(#linear-gradient-54)"/>
          <path id="Path_34" data-name="Path 34" d="M523.007,977.31l11.359,438.18-73.546-17.68,37.993-407.668Z" fill="url(#linear-gradient-55)"/>
          <path id="Path_35" data-name="Path 35" d="M489.43,1090.823l-75.321,13.844,25.982,293.142H460.82Z" fill="url(#linear-gradient-56)"/>
        </g>
        <g id="Group_18" data-name="Group 18">
          <path id="Path_36" data-name="Path 36" d="M599.455,1217.3l-59.38,25.956v208.911l69.1,10.315Z" fill="url(#linear-gradient-57)"/>
          <path id="Path_37" data-name="Path 37" d="M699.861,1241.356,599.455,1217.3l9.717,245.182,90.69-2.085Z" fill="url(#linear-gradient-58)"/>
          <rect id="Rectangle_20" data-name="Rectangle 20" width="12.868" height="87.482" transform="translate(615.891 1243.952)" fill="url(#linear-gradient-59)"/>
          <rect id="Rectangle_21" data-name="Rectangle 21" width="12.868" height="87.482" transform="translate(643.51 1249.13)" fill="url(#linear-gradient-60)"/>
          <rect id="Rectangle_22" data-name="Rectangle 22" width="12.868" height="87.482" transform="translate(670.557 1252.068)" fill="url(#linear-gradient-61)"/>
        </g>
        <path id="Path_38" data-name="Path 38" d="M417.22,1139.762l68.87-13.1-2.168,23.625-65.034,8.295Z" fill="url(#linear-gradient-62)"/>
        <path id="Path_39" data-name="Path 39" d="M421.013,1182.563l60.433-6.079-1.748,18.758-56.914,7.3Z" fill="url(#linear-gradient-63)"/>
      </g>
    </g>
    <rect id="Rectangle_24" data-name="Rectangle 24" width="643" height="850" transform="translate(878 609)" fill="#383a5f"/>
    <text id="Program_Development_Executive" data-name="Program 
Development 
Executive" transform="translate(926 748.089)" fill="#fff" font-size="59.919" font-family="SegoeUI, Segoe UI"><tspan x="0" y="0">Program </tspan><tspan x="0" y="71.903">Development </tspan><tspan x="0" y="143.805">Executive</tspan></text>
    <text id="_Job_Description_" data-name=" Job Description " transform="translate(930.959 965.458)" fill="#b8f1f4" font-size="28" font-family="Roboto-Thin, Roboto" font-weight="200"><tspan x="0" y="0" xml:space="preserve"> Job Description </tspan></text>
    <rect id="Rectangle_25" data-name="Rectangle 25" width="384" height="20" transform="translate(931 661)" fill="#b8f1f4"/>
    <text id="Với_vị_trí_Program_Development_Executive_chúng_tôi_luôn_tìm_kiếm_các_bạn_trẻ_với_tinh_thần_trách_nhiệm_cao_đã_có_kinh_nghiệm_trong_lĩnh_vực_phát_triển_Nội_Dung._Công_việc_của_các_bạn_bao_gồm:_Lên_kế_hoạch_và_xây_dựng_nội_dung_cho_cuộc_thi_các_vòng_th" data-name="Với vị trí Program Development Executive, chúng tôi luôn tìm kiếm các bạn trẻ với tinh thần trách nhiệm cao, đã có kinh nghiệm trong lĩnh vực phát triển Nội Dung. Công việc của các bạn bao gồm:

  Lên kế hoạch và xây dựng nội dung cho cuộc thi (các vòng th" transform="translate(947.265 981.198)" fill="#fff" font-size="19" font-family="Roboto-Thin, Roboto" font-weight="200"><tspan x="0" y="20">Với vị trí Program Development Executive, chúng tôi luôn </tspan><tspan x="0" y="42.8">tìm kiếm các bạn trẻ với tinh thần trách nhiệm cao, đã </tspan><tspan x="0" y="65.6">có kinh nghiệm trong lĩnh vực phát triển Nội Dung. Công </tspan><tspan x="0" y="88.4">việc của các bạn bao gồm:</tspan><tspan x="0" y="111.2"></tspan><tspan x="0" y="134" xml:space="preserve">  Lên kế hoạch và xây dựng nội dung cho cuộc thi (các </tspan><tspan x="0" y="156.8">vòng thi), các sự kiện trước và sau cuộc thi dựa theo </tspan><tspan x="0" y="179.6">General Program, ý kiến khảo sát từ đối tượng thí sinh </tspan><tspan x="0" y="202.4">tiềm năng, các Hội đồng Cố vấn và Stakeholders</tspan><tspan x="0" y="225.2"></tspan><tspan x="0" y="248" xml:space="preserve">  Ðảm bảo tiến độ phát triển nội dung đúng với từng giai </tspan><tspan x="0" y="270.8">đoạn phát triển dự án - Phối hợp cùng các phòng ban </tspan><tspan x="0" y="293.6">khác để triển khai các chương trình</tspan><tspan x="0" y="316.4"></tspan><tspan x="0" y="339.2" xml:space="preserve">  Phụ trách thực hiện đánh giá và báo cáo sau các phần </tspan><tspan x="0" y="362">chương trình đã tổ chức</tspan><tspan font-family="Roboto-Thin"><tspan x="0" y="384.8"></tspan></tspan></text>
  </g>
</svg>
