<svg xmlns="http://www.w3.org/2000/svg" xmlns:xlink="http://www.w3.org/1999/xlink" width="121.905" height="181.391" viewBox="0 0 121.905 181.391">
  <defs>
    <linearGradient id="linear-gradient" y1="0.5" x2="1" y2="0.5" gradientUnits="objectBoundingBox">
      <stop offset="0" stop-color="#b8f1f4"/>
      <stop offset="0.184" stop-color="#b5edf1"/>
      <stop offset="0.325" stop-color="#aee4e9"/>
      <stop offset="0.453" stop-color="#a2d3dc"/>
      <stop offset="0.573" stop-color="#91bcc9"/>
      <stop offset="0.687" stop-color="#7b9eb1"/>
      <stop offset="0.797" stop-color="#607994"/>
      <stop offset="0.901" stop-color="#414e71"/>
      <stop offset="0.909" stop-color="#3f4b6f"/>
      <stop offset="0.933" stop-color="#404d71"/>
      <stop offset="0.947" stop-color="#465577"/>
      <stop offset="0.959" stop-color="#516483"/>
      <stop offset="0.969" stop-color="#607893"/>
      <stop offset="0.979" stop-color="#7392a8"/>
      <stop offset="0.987" stop-color="#8ab3c2"/>
      <stop offset="0.995" stop-color="#a6d8e0"/>
      <stop offset="1" stop-color="#b8f1f4"/>
    </linearGradient>
  </defs>
  <g id="Group_134" data-name="Group 134" transform="translate(-10219.941 -1913.016)">
    <path id="Path_32" data-name="Path 32" d="M10220.605,1936.908l50.783-23.892,50.439,24.611-.663,93.347-30.661,15.357-20.4,48.076-19.943-48.478-30.215-15.674Z" opacity="0.79" fill="url(#linear-gradient)"/>
    <path id="Path_33" data-name="Path 33" d="M10271.389,1913.016l70.458,26.862-20.019-2.251Z" opacity="0.79" fill="url(#linear-gradient)"/>
    <path id="Path_34" data-name="Path 34" d="M10341.846,1939.878c-.015,2.109-3.919,106.472-3.919,106.472l-16.762-15.376.663-93.347Z" opacity="0.79" fill="url(#linear-gradient)"/>
    <path id="Path_35" data-name="Path 35" d="M10337.927,2046.35l-32.776,12.421-14.646-12.44,30.661-15.357Z" opacity="0.79" fill="url(#linear-gradient)"/>
    <path id="Path_36" data-name="Path 36" d="M10270.1,2094.407l35.051-35.636-14.646-12.44Z" opacity="0.79" fill="url(#linear-gradient)"/>
    <path id="Path_37" data-name="Path 37" d="M10271.182,1956.514l-12.607-14.166.832,18.946-18.932-1.1L10254.46,1973l-14.166,12.608,18.946-.833-1.1,18.932,12.809-13.986,12.607,14.166-.832-18.946,18.932,1.1-13.985-12.808,14.166-12.608-18.946.833,1.1-18.932Z" fill="#3f4b6f"/>
  </g>
</svg>
