<svg width="640" height="463" viewBox="0 0 640 463" fill="none" xmlns="http://www.w3.org/2000/svg">
<g id="story-svg" clip-path="url(#clip0)">
<path id="Ellipse 40" d="M363.821 313.004C515.208 231.283 618.153 128.394 593.755 83.1967C569.356 37.9991 426.854 67.6079 275.466 149.33C124.079 231.051 21.1339 333.94 45.5323 379.137C69.9308 424.335 212.434 394.726 363.821 313.004Z" stroke="#233E98" stroke-width="2" stroke-miterlimit="10"/>
<path id="OUR" d="M137.182 223.636C123.173 223.636 111.943 219.02 103.492 209.788C95.0868 200.556 90.8841 188.545 90.8841 173.755C90.8841 157.863 95.1786 145.187 103.768 135.725C112.357 126.263 124.046 121.532 138.835 121.532C152.477 121.532 163.454 126.125 171.767 135.312C180.127 144.498 184.306 156.508 184.306 171.344C184.306 187.465 180.035 200.211 171.492 209.581C162.949 218.951 151.512 223.636 137.182 223.636ZM138.009 132.005C127.628 132.005 119.2 135.748 112.724 143.234C106.248 150.721 103.01 160.55 103.01 172.722C103.01 184.893 106.156 194.699 112.448 202.14C118.787 209.535 127.031 213.232 137.182 213.232C148.021 213.232 156.565 209.696 162.811 202.622C169.058 195.549 172.181 185.651 172.181 172.928C172.181 159.884 169.149 149.803 163.087 142.683C157.024 135.564 148.665 132.005 138.009 132.005ZM276.006 182.023C276.006 209.765 263.49 223.636 238.458 223.636C214.483 223.636 202.495 210.293 202.495 183.607V123.186H214.069V182.849C214.069 203.105 222.612 213.232 239.698 213.232C256.187 213.232 264.432 203.449 264.432 183.883V123.186H276.006V182.023ZM371.564 221.982H357.785L341.25 194.286C339.735 191.714 338.265 189.532 336.841 187.741C335.417 185.904 333.947 184.411 332.432 183.263C330.962 182.115 329.354 181.288 327.609 180.783C325.91 180.231 323.981 179.956 321.822 179.956H312.314V221.982H300.74V123.186H330.227C334.545 123.186 338.518 123.737 342.146 124.839C345.82 125.896 348.99 127.526 351.654 129.731C354.364 131.936 356.476 134.691 357.992 137.998C359.508 141.259 360.266 145.095 360.266 149.504C360.266 152.949 359.737 156.118 358.681 159.012C357.671 161.859 356.201 164.408 354.272 166.659C352.389 168.91 350.092 170.839 347.382 172.446C344.718 174.008 341.71 175.225 338.357 176.098V176.373C340.01 177.108 341.434 177.958 342.628 178.922C343.868 179.841 345.04 180.943 346.142 182.229C347.244 183.515 348.324 184.985 349.38 186.639C350.482 188.246 351.7 190.129 353.032 192.288L371.564 221.982ZM312.314 133.658V169.484H328.022C330.916 169.484 333.58 169.047 336.014 168.175C338.495 167.302 340.63 166.062 342.422 164.454C344.213 162.801 345.614 160.803 346.624 158.46C347.635 156.072 348.14 153.408 348.14 150.469C348.14 145.187 346.418 141.076 342.973 138.136C339.574 135.151 334.636 133.658 328.16 133.658H312.314Z" fill="#B3FFFF"/>
<path id="STORY" d="M236.009 360.576V346.935C237.571 348.313 239.431 349.553 241.59 350.655C243.795 351.757 246.091 352.699 248.48 353.48C250.914 354.215 253.348 354.789 255.782 355.202C258.217 355.616 260.467 355.822 262.534 355.822C269.653 355.822 274.958 354.513 278.449 351.895C281.986 349.231 283.754 345.419 283.754 340.459C283.754 337.795 283.157 335.475 281.963 333.5C280.815 331.525 279.207 329.734 277.14 328.126C275.073 326.473 272.616 324.911 269.768 323.441C266.967 321.926 263.935 320.341 260.674 318.688C257.229 316.942 254.014 315.174 251.029 313.383C248.043 311.591 245.448 309.616 243.243 307.458C241.039 305.299 239.293 302.865 238.007 300.155C236.767 297.399 236.147 294.184 236.147 290.509C236.147 286.008 237.135 282.104 239.11 278.797C241.085 275.444 243.68 272.688 246.895 270.53C250.11 268.371 253.762 266.763 257.849 265.707C261.983 264.651 266.186 264.122 270.457 264.122C280.194 264.122 287.291 265.294 291.746 267.636V280.657C285.913 276.615 278.426 274.594 269.286 274.594C266.76 274.594 264.234 274.87 261.707 275.421C259.181 275.926 256.931 276.776 254.956 277.97C252.981 279.165 251.373 280.703 250.133 282.586C248.893 284.47 248.273 286.766 248.273 289.476C248.273 292.002 248.732 294.184 249.651 296.021C250.615 297.858 252.016 299.535 253.853 301.05C255.691 302.566 257.918 304.036 260.536 305.46C263.2 306.884 266.255 308.445 269.699 310.145C273.236 311.89 276.589 313.727 279.758 315.656C282.927 317.585 285.706 319.721 288.094 322.063C290.483 324.406 292.366 327.001 293.744 329.849C295.168 332.696 295.88 335.957 295.88 339.632C295.88 344.5 294.915 348.634 292.986 352.033C291.103 355.386 288.531 358.119 285.27 360.232C282.055 362.344 278.334 363.86 274.109 364.779C269.883 365.743 265.428 366.226 260.743 366.226C259.181 366.226 257.252 366.088 254.956 365.812C252.659 365.582 250.317 365.215 247.928 364.71C245.54 364.251 243.266 363.676 241.108 362.987C238.995 362.253 237.296 361.449 236.009 360.576ZM374.007 276.248H345.484V364.572H333.91V276.248H305.456V265.776H374.007V276.248ZM422.785 366.226C408.776 366.226 397.546 361.61 389.095 352.378C380.69 343.146 376.487 331.135 376.487 316.345C376.487 300.453 380.782 287.776 389.371 278.315C397.96 268.853 409.649 264.122 424.439 264.122C438.08 264.122 449.057 268.715 457.371 277.901C465.73 287.088 469.91 299.098 469.91 313.934C469.91 330.055 465.638 342.801 457.095 352.171C448.552 361.541 437.115 366.226 422.785 366.226ZM423.612 274.594C413.232 274.594 404.803 278.338 398.327 285.824C391.851 293.311 388.613 303.14 388.613 315.312C388.613 327.483 391.759 337.289 398.052 344.73C404.39 352.125 412.635 355.822 422.785 355.822C433.625 355.822 442.168 352.286 448.414 345.212C454.661 338.139 457.784 328.241 457.784 315.518C457.784 302.474 454.753 292.392 448.69 285.273C442.627 278.154 434.268 274.594 423.612 274.594ZM560.163 364.572H546.384L529.849 336.876C528.333 334.304 526.863 332.122 525.439 330.331C524.016 328.494 522.546 327.001 521.03 325.853C519.56 324.704 517.953 323.878 516.208 323.373C514.508 322.821 512.579 322.546 510.42 322.546H500.913V364.572H489.338V265.776H518.826C523.143 265.776 527.116 266.327 530.744 267.429C534.419 268.486 537.588 270.116 540.252 272.321C542.962 274.526 545.075 277.281 546.59 280.588C548.106 283.849 548.864 287.685 548.864 292.094C548.864 295.539 548.336 298.708 547.279 301.602C546.269 304.449 544.799 306.998 542.87 309.249C540.987 311.5 538.69 313.429 535.981 315.036C533.317 316.598 530.308 317.815 526.955 318.688V318.963C528.609 319.698 530.033 320.548 531.227 321.512C532.467 322.431 533.638 323.533 534.74 324.819C535.843 326.105 536.922 327.575 537.978 329.229C539.081 330.836 540.298 332.719 541.63 334.878L560.163 364.572ZM500.913 276.248V312.074H516.621C519.514 312.074 522.178 311.637 524.613 310.765C527.093 309.892 529.229 308.652 531.02 307.044C532.811 305.391 534.212 303.393 535.223 301.05C536.233 298.662 536.738 295.998 536.738 293.058C536.738 287.776 535.016 283.666 531.571 280.726C528.172 277.741 523.235 276.248 516.759 276.248H500.913ZM635.259 265.776L602.671 328.057V364.572H591.097V328.333L559.336 265.776H572.495L594.611 310.42C594.886 310.971 595.69 312.992 597.022 316.483H597.229C597.688 314.921 598.561 312.9 599.847 310.42L622.996 265.776H635.259Z" fill="#B3FFFF"/>
<g id="Group 99">
<g id="Group 98">
<path id="Path 549" d="M37.018 85.561C37.6551 86.1277 38.0489 86.9182 38.1179 87.768C38.1296 88.6243 37.8229 89.4543 37.257 90.097C36.8653 90.6073 36.331 90.9901 35.7219 91.197C35.1067 91.3968 34.4468 91.4142 33.822 91.247C33.1048 91.0581 32.4367 90.7171 31.863 90.247L30.923 89.5011C30.3268 89.0441 29.8358 88.4642 29.4831 87.801C29.1737 87.2238 29.042 86.5679 29.1049 85.916C29.1774 85.2615 29.4396 84.6425 29.8591 84.135C30.3544 83.4353 31.1024 82.9559 31.945 82.7981C32.7771 82.6943 33.6179 82.9066 34.301 83.393L33.811 84.009C33.5558 83.8041 33.2607 83.6548 32.9445 83.5705C32.6283 83.4862 32.2981 83.4689 31.9748 83.5195C31.6515 83.5701 31.3421 83.6877 31.0668 83.8646C30.7916 84.0415 30.5563 84.2739 30.3759 84.547C30.126 84.8393 29.9494 85.187 29.8605 85.5612C29.7717 85.9355 29.7731 86.3256 29.8649 86.6991C30.1236 87.5892 30.6773 88.3649 31.435 88.899L32.32 89.599C33.0019 90.2012 33.8641 90.5602 34.7719 90.62C35.1521 90.634 35.5301 90.5552 35.873 90.3903C36.2159 90.2255 36.5134 89.9797 36.7399 89.674C37.1945 89.1821 37.4416 88.5337 37.4299 87.864C37.3391 87.2091 37.0206 86.6072 36.53 86.164L37.018 85.561Z" fill="white"/>
<path id="Path 550" d="M36.988 81.6681C36.895 81.22 36.9185 80.7556 37.0562 80.3191C37.192 79.8924 37.4394 79.5098 37.7729 79.2111C37.981 78.9897 38.2354 78.8169 38.5178 78.7051C38.8003 78.5932 39.1038 78.5451 39.407 78.5641C40.0634 78.6938 40.6523 79.0528 41.0681 79.577L44.1011 82.91L43.543 83.4191L40.5051 80.0811C40.2011 79.697 39.7722 79.4314 39.293 79.3301C39.067 79.3173 38.8412 79.3549 38.6316 79.4402C38.422 79.5255 38.2339 79.6562 38.0811 79.823C37.741 80.1252 37.5195 80.5385 37.4561 80.989C37.3891 81.4727 37.4609 81.9655 37.6631 82.41L40.8291 85.889L40.271 86.396L33.708 79.186L34.2661 78.6781L36.988 81.6681Z" fill="white"/>
<path id="Path 551" d="M44.4421 75.004C44.2861 75.0775 44.1371 75.1652 43.9971 75.266C43.6358 75.5088 43.3708 75.8704 43.248 76.2881C43.1384 76.7357 43.1735 77.2065 43.3481 77.6331L46.0872 81.472L45.4719 81.911L41.4841 76.3201L42.084 75.889L42.729 76.77C42.6428 76.3708 42.6798 75.9548 42.8347 75.5769C42.9897 75.199 43.2553 74.8769 43.5969 74.6531C43.7319 74.548 43.8872 74.4721 44.053 74.4301L44.4421 75.004Z" fill="white"/>
<path id="Path 552" d="M46.6611 76.7001C46.3561 76.1646 46.1779 75.5662 46.1401 74.9511C46.1016 74.3918 46.2268 73.8335 46.5005 73.3443C46.7741 72.855 47.1844 72.456 47.6811 72.1961C48.0412 71.9822 48.4443 71.8511 48.8613 71.8124C49.2783 71.7737 49.6987 71.8282 50.092 71.9721C50.9542 72.3125 51.6572 72.9642 52.062 73.7981L52.1379 73.9361C52.4446 74.4741 52.6246 75.075 52.664 75.693C52.7022 76.2499 52.5773 76.8059 52.3049 77.2931C52.0243 77.7792 51.6118 78.1758 51.115 78.437C50.7553 78.6501 50.3528 78.7807 49.9365 78.8192C49.5202 78.8578 49.1007 78.8034 48.708 78.66C47.844 78.3219 47.1393 77.6707 46.7341 76.8361L46.6611 76.7001ZM47.4289 76.5171C47.7525 77.1701 48.2945 77.689 48.9609 77.984C49.2568 78.1033 49.5755 78.1555 49.894 78.1369C50.2125 78.1182 50.5228 78.0291 50.8027 77.8761C51.0826 77.7231 51.3253 77.5098 51.5129 77.2518C51.7006 76.9939 51.8285 76.6975 51.8879 76.384C51.9937 75.6426 51.8375 74.8875 51.446 74.249L51.375 74.1211C51.1425 73.6836 50.8193 73.3007 50.427 72.9981C50.0801 72.7226 49.6622 72.551 49.2219 72.5031C48.7943 72.4639 48.3651 72.5567 47.9919 72.7691C47.7085 72.9164 47.464 73.1287 47.278 73.3884C47.0921 73.6482 46.9702 73.9482 46.9221 74.2641C46.8158 75.0056 46.9713 75.7609 47.362 76.4L47.4289 76.5171Z" fill="white"/>
<path id="Path 553" d="M53.208 69.6701L53.635 70.764C53.7186 70.3086 53.9161 69.8817 54.209 69.5231C54.4964 69.1803 54.8704 68.9206 55.292 68.771C55.5683 68.6444 55.8694 68.5807 56.1733 68.5841C56.4773 68.5876 56.7766 68.6582 57.05 68.791C57.6091 69.1578 58.0185 69.7127 58.2041 70.3551L59.7542 74.588L59.0449 74.8471L57.4929 70.609C57.357 70.1385 57.0606 69.7306 56.655 69.4561C56.4504 69.3594 56.2268 69.3093 56.0005 69.3093C55.7742 69.3093 55.5506 69.3594 55.3459 69.4561C54.917 69.6072 54.556 69.906 54.3271 70.2991C54.0826 70.7218 53.9628 71.2051 53.9819 71.693L55.5991 76.109L54.8901 76.369L52.5291 69.9201L53.208 69.6701Z" fill="white"/>
<path id="Path 554" d="M60.218 70.754C60.086 70.1523 60.0931 69.5285 60.239 68.93C60.368 68.3843 60.6533 67.8879 61.0598 67.5017C61.4663 67.1154 61.9765 66.8559 62.5281 66.755C62.9353 66.6575 63.3591 66.6518 63.7688 66.7383C64.1785 66.8247 64.5639 67.0012 64.897 67.255C65.6193 67.8361 66.0978 68.6666 66.2381 69.583L66.2691 69.738C66.4021 70.3429 66.3952 70.9702 66.249 71.572C66.1209 72.1143 65.8374 72.6075 65.4331 72.9911C65.0215 73.3725 64.5099 73.6291 63.958 73.7311C63.5512 73.8278 63.1281 73.8331 62.719 73.7467C62.3099 73.6602 61.9249 73.4841 61.5921 73.2311C60.8676 72.6514 60.3878 71.8203 60.2481 70.9031L60.218 70.754ZM61.0061 70.8081C61.1219 71.5269 61.485 72.1827 62.033 72.6621C62.2806 72.864 62.57 73.0084 62.8801 73.0849C63.1903 73.1615 63.5136 73.1682 63.8267 73.1047C64.1398 73.0412 64.4349 72.909 64.6907 72.7176C64.9465 72.5263 65.1568 72.2805 65.3062 71.998C65.626 71.321 65.7002 70.5538 65.5161 69.828L65.4871 69.6841C65.3946 69.1974 65.1992 68.7361 64.9141 68.331C64.6654 67.9659 64.3188 67.6782 63.9141 67.5011C63.5177 67.3366 63.0804 67.2974 62.6611 67.389C62.3467 67.4457 62.05 67.576 61.7954 67.769C61.5408 67.9621 61.3355 68.2125 61.1961 68.5C60.8747 69.1768 60.7989 69.9444 60.9819 70.671L61.0061 70.8081Z" fill="white"/>
<path id="Path 555" d="M70.695 72.2381C71.1768 72.227 71.6385 72.0424 71.995 71.7181C72.1606 71.568 72.2923 71.3843 72.3812 71.1792C72.4702 70.9742 72.5143 70.7526 72.5109 70.5291L73.2399 70.4881C73.2442 70.9004 73.1298 71.3052 72.91 71.6541C72.6854 72.016 72.3699 72.3128 71.995 72.5151C71.6062 72.732 71.1726 72.8566 70.7279 72.8791C70.3243 72.919 69.9171 72.8658 69.5372 72.7237C69.1574 72.5815 68.8152 72.3542 68.537 72.0591C67.9396 71.3712 67.6098 70.4912 67.608 69.5801L67.5949 69.3521C67.549 68.7364 67.6365 68.1181 67.851 67.5391C68.0368 67.0345 68.3672 66.5959 68.8009 66.2781C69.2494 65.9637 69.7796 65.7861 70.327 65.7671C71.0102 65.7043 71.6911 65.9086 72.2269 66.3371C72.483 66.5497 72.6931 66.8122 72.8444 67.1086C72.9957 67.405 73.0849 67.729 73.1068 68.0611L72.379 68.1011C72.3599 67.8572 72.2922 67.6196 72.1801 67.4021C72.068 67.1847 71.9137 66.9918 71.7262 66.8348C71.5387 66.6777 71.3215 66.5596 71.0878 66.4874C70.8541 66.4151 70.6083 66.3902 70.3649 66.4141C70.0581 66.4162 69.7565 66.4928 69.486 66.6374C69.2154 66.782 68.9841 66.9902 68.8119 67.2441C68.4334 67.8786 68.2746 68.6202 68.36 69.3541L68.372 69.5761C68.3694 70.305 68.6089 71.014 69.0529 71.5921C69.2544 71.8239 69.509 72.0036 69.7948 72.116C70.0807 72.2285 70.3895 72.2704 70.695 72.2381Z" fill="white"/>
<path id="Path 556" d="M75.5129 72.748L74.752 72.7161L75.168 62.974L75.929 63.0081L75.5129 72.748Z" fill="white"/>
<path id="Path 557" d="M79.9771 73.3231C79.4238 73.2513 78.9016 73.0257 78.4701 72.672C78.0431 72.3185 77.7246 71.8517 77.5511 71.3251C77.3622 70.7555 77.3125 70.1489 77.4061 69.5561L77.4452 69.2872C77.5222 68.6755 77.7389 68.0898 78.0782 67.5751C78.3833 67.1082 78.8103 66.7336 79.3131 66.4921C79.7894 66.2608 80.3243 66.1779 80.8482 66.2541C81.2204 66.2907 81.5794 66.411 81.8985 66.606C82.2177 66.801 82.4886 67.0656 82.691 67.3801C83.1136 68.1089 83.256 68.9669 83.0912 69.7931L83.0311 70.214L78.18 69.5191L78.159 69.6641C78.0348 70.3621 78.1728 71.0815 78.5462 71.6841C78.7128 71.9591 78.9395 72.1927 79.2093 72.3675C79.4792 72.5422 79.7851 72.6535 80.1041 72.693C80.4711 72.7536 80.8472 72.7308 81.2042 72.6262C81.5587 72.5079 81.8804 72.3078 82.1432 72.042L82.5631 72.4681C82.2421 72.8211 81.8355 73.0854 81.3824 73.2352C80.9294 73.3849 80.4453 73.4152 79.9771 73.3231V73.3231ZM80.7572 66.8941C80.4889 66.8509 80.2145 66.8659 79.9525 66.9378C79.6904 67.0097 79.4468 67.137 79.2381 67.3111C78.7612 67.7186 78.4292 68.2699 78.2921 68.8821L82.3702 69.4661L82.3822 69.3841C82.4695 68.8039 82.3524 68.2115 82.0511 67.7081C81.9111 67.4833 81.7218 67.2933 81.4977 67.1523C81.2735 67.0113 81.0204 66.923 80.7572 66.8941V66.8941Z" fill="white"/>
<path id="Path 558" d="M87.4251 71.148C87.6296 70.5667 87.9645 70.0399 88.4041 69.608C88.8011 69.2123 89.3047 68.9407 89.8534 68.8264C90.4021 68.712 90.9723 68.7598 91.4942 68.964C91.8918 69.0957 92.2551 69.3142 92.5579 69.6035C92.8608 69.8928 93.0955 70.2459 93.2452 70.6371C93.5532 71.5113 93.5224 72.4692 93.159 73.322L93.1041 73.471C92.8987 74.055 92.563 74.5844 92.1222 75.019C91.7275 75.4127 91.2269 75.683 90.6812 75.797C90.1302 75.9035 89.5603 75.8523 89.0372 75.649C88.6403 75.5169 88.2777 75.2985 87.9754 75.0094C87.6732 74.7202 87.4387 74.3676 87.2891 73.977C86.9792 73.1029 87.0088 72.1443 87.3722 71.291L87.4251 71.148ZM88.0672 71.609C87.7874 72.2812 87.7519 73.0304 87.9671 73.726C88.0713 74.0281 88.2411 74.3032 88.4644 74.5316C88.6878 74.76 88.9592 74.9359 89.2589 75.0467C89.5585 75.1575 89.8791 75.2003 90.1974 75.1722C90.5156 75.1441 90.8236 75.0456 91.0992 74.884C91.7279 74.4769 92.1949 73.8634 92.42 73.149L92.471 73.013C92.6485 72.5499 92.7257 72.0543 92.6971 71.5591C92.6765 71.1171 92.532 70.6898 92.2801 70.326C92.0295 69.9773 91.678 69.7138 91.273 69.571C90.9759 69.4539 90.6555 69.4086 90.3375 69.4387C90.0195 69.4687 89.7131 69.5733 89.4432 69.744C88.814 70.1506 88.3455 70.7632 88.118 71.477L88.0672 71.609Z" fill="white"/>
<path id="Path 559" d="M93.5881 77.476L96.4441 71.922L95.4331 71.4021L95.718 70.849L96.728 71.368L97.1082 70.629C97.3424 70.0872 97.779 69.6584 98.325 69.434C98.5876 69.3515 98.8649 69.3251 99.1384 69.3564C99.412 69.3878 99.6759 69.4763 99.9131 69.6161C100.156 69.7387 100.381 69.8945 100.581 70.0791L100.242 70.613C100.064 70.4626 99.8699 70.3336 99.6621 70.229C99.5054 70.1366 99.3303 70.0797 99.1492 70.0625C98.9681 70.0452 98.7854 70.0679 98.614 70.129C98.2475 70.2934 97.9554 70.5887 97.7949 70.957L97.406 71.716L98.8621 72.4651L98.5771 73.0171L97.1211 72.269L94.2651 77.8241L93.5881 77.476Z" fill="white"/>
<path id="Path 560" d="M100.188 81.4821L99.553 81.0281L104.931 73.5131L105.566 73.967L100.188 81.4821Z" fill="white"/>
<path id="Path 561" d="M107.002 78.0531L106.237 78.9441C106.678 78.8032 107.148 78.7766 107.602 78.8671C108.04 78.9589 108.445 79.166 108.775 79.467C109.017 79.6513 109.214 79.8867 109.354 80.1564C109.494 80.4261 109.573 80.7235 109.584 81.0271C109.523 81.6931 109.226 82.3152 108.746 82.781L105.74 86.1381L105.177 85.6381L108.188 82.275C108.539 81.9336 108.759 81.4806 108.811 80.994C108.801 80.768 108.74 80.5473 108.634 80.3475C108.528 80.1478 108.379 79.974 108.197 79.839C107.861 79.5321 107.428 79.3548 106.973 79.339C106.485 79.3218 106.003 79.4432 105.581 79.6891L102.444 83.1891L101.881 82.6891L106.463 77.573L107.002 78.0531Z" fill="white"/>
<path id="Path 562" d="M112.636 83.5081L111.749 84.2771C112.206 84.2023 112.674 84.2449 113.11 84.401C113.529 84.5569 113.899 84.8225 114.181 85.17C114.393 85.3877 114.554 85.6495 114.653 85.9369C114.752 86.2243 114.786 86.53 114.753 86.832C114.594 87.4816 114.209 88.0533 113.666 88.4441L110.198 91.323L109.716 90.7421L113.188 87.859C113.586 87.5727 113.871 87.1564 113.994 86.682C114.016 86.4571 113.989 86.23 113.913 86.017C113.837 85.804 113.715 85.6104 113.556 85.4501C113.27 85.0968 112.867 84.8565 112.42 84.7721C111.94 84.6833 111.444 84.7329 110.991 84.915L107.372 87.915L106.889 87.3341L112.174 82.947L112.636 83.5081Z" fill="white"/>
<path id="Path 563" d="M113.962 90.4761C114.484 90.1484 115.074 89.9449 115.687 89.8811C116.244 89.8186 116.808 89.9199 117.308 90.1727C117.809 90.4254 118.225 90.8186 118.505 91.3041C118.734 91.6549 118.882 92.0522 118.939 92.4673C118.995 92.8825 118.958 93.305 118.831 93.7041C118.527 94.5797 117.906 95.3096 117.091 95.75L116.955 95.8321C116.43 96.1615 115.837 96.3666 115.221 96.4321C114.667 96.4935 114.108 96.3929 113.61 96.1421C113.112 95.8824 112.699 95.4867 112.417 95.0011C112.188 94.6502 112.041 94.2528 111.985 93.8377C111.928 93.4226 111.965 93.0003 112.092 92.6011C112.394 91.7243 113.015 90.9929 113.831 90.552L113.962 90.4761ZM114.176 91.2352C113.538 91.5861 113.043 92.1492 112.776 92.8271C112.669 93.1282 112.63 93.4493 112.663 93.7673C112.695 94.0852 112.798 94.392 112.963 94.6655C113.128 94.9389 113.352 95.1722 113.619 95.3486C113.885 95.5249 114.188 95.6398 114.504 95.6851C115.249 95.7588 115.997 95.5704 116.618 95.1521L116.743 95.0761C117.17 94.8252 117.539 94.486 117.825 94.0811C118.085 93.7225 118.238 93.298 118.268 92.8561C118.29 92.4276 118.179 92.0027 117.951 91.6391C117.791 91.3622 117.569 91.1269 117.302 90.9521C117.034 90.7773 116.73 90.668 116.412 90.6331C115.667 90.5587 114.918 90.7461 114.296 91.1631L114.176 91.2352Z" fill="white"/>
<path id="Path 564" d="M119.833 103.799C119.025 104.071 118.143 104.021 117.371 103.659C116.623 103.245 116.055 102.568 115.777 101.759C115.526 101.166 115.456 100.512 115.577 99.8791C115.709 99.2454 116.022 98.6633 116.477 98.203C116.997 97.6744 117.623 97.2632 118.315 96.9971L119.429 96.552C120.12 96.2599 120.867 96.1202 121.617 96.1421C122.272 96.1601 122.907 96.3712 123.442 96.7491C123.974 97.1368 124.381 97.6714 124.614 98.2872C124.976 99.0644 125.022 99.9517 124.742 100.762C124.418 101.536 123.816 102.161 123.055 102.513L122.763 101.782C123.067 101.662 123.344 101.48 123.574 101.247C123.804 101.014 123.983 100.736 124.1 100.43C124.216 100.125 124.267 99.7977 124.25 99.4709C124.233 99.144 124.148 98.8243 124.001 98.5321C123.871 98.1701 123.656 97.8442 123.375 97.5815C123.094 97.3187 122.754 97.1266 122.384 97.021C121.483 96.8035 120.534 96.8995 119.695 97.2931L118.645 97.7131C117.784 98.0059 117.045 98.5769 116.545 99.3361C116.344 99.659 116.224 100.026 116.197 100.406C116.17 100.785 116.236 101.166 116.389 101.514C116.591 102.154 117.031 102.691 117.619 103.014C118.233 103.258 118.913 103.279 119.54 103.073L119.833 103.799Z" fill="white"/>
<path id="Path 565" d="M117.673 107.152L117.473 106.417L124.109 104.642L124.309 105.379L117.673 107.152ZM125.993 104.002C126.057 103.983 126.124 103.977 126.191 103.984C126.257 103.991 126.321 104.011 126.38 104.043C126.441 104.078 126.494 104.125 126.536 104.182C126.577 104.239 126.606 104.304 126.621 104.373C126.642 104.439 126.65 104.508 126.643 104.576C126.637 104.645 126.616 104.711 126.583 104.771C126.549 104.832 126.504 104.884 126.449 104.926C126.394 104.968 126.331 104.998 126.264 105.014C126.2 105.033 126.133 105.039 126.067 105.031C126.001 105.023 125.938 105.002 125.88 104.969C125.819 104.933 125.767 104.884 125.725 104.827C125.684 104.769 125.655 104.704 125.64 104.635C125.619 104.568 125.611 104.497 125.619 104.428C125.626 104.358 125.647 104.29 125.682 104.229C125.75 104.116 125.86 104.034 125.988 104.002H125.993Z" fill="white"/>
<path id="Path 566" d="M126.81 108.522L125.083 108.85L125.348 110.25L124.737 110.366L124.472 108.966L119.972 109.821C119.674 109.855 119.394 109.981 119.172 110.182C119.091 110.283 119.035 110.402 119.009 110.529C118.984 110.656 118.99 110.787 119.026 110.911C119.071 111.113 119.131 111.311 119.203 111.505L118.603 111.651C118.475 111.408 118.388 111.145 118.346 110.873C118.288 110.669 118.279 110.454 118.32 110.245C118.361 110.037 118.45 109.841 118.58 109.673C118.917 109.34 119.355 109.129 119.826 109.073L124.326 108.218L124.09 106.976L124.701 106.86L124.937 108.101L126.664 107.773L126.81 108.522Z" fill="white"/>
<path id="Path 567" d="M120.076 114.96L125.994 116.498L126.059 117.314L117.815 115.032L117.448 114.909C117.075 114.814 116.74 114.605 116.492 114.311C116.243 114.017 116.093 113.652 116.062 113.268C116.049 113.071 116.063 112.873 116.104 112.68L116.73 112.623L116.723 113.023C116.734 113.348 116.857 113.659 117.071 113.903C117.35 114.16 117.693 114.336 118.064 114.413L119.014 114.674L125.597 111.549L125.663 112.378L120.076 114.96Z" fill="white"/>
<path id="Path 568" d="M104.988 155.927C104.424 155.287 104.128 154.455 104.161 153.602C104.253 152.751 104.657 151.964 105.295 151.394C105.745 150.934 106.321 150.617 106.95 150.483C107.585 150.358 108.243 150.42 108.843 150.661C109.533 150.934 110.156 151.352 110.67 151.887L111.512 152.74C112.05 153.264 112.468 153.897 112.739 154.597C112.977 155.208 113.029 155.875 112.889 156.515C112.738 157.156 112.403 157.738 111.926 158.192C111.351 158.828 110.551 159.215 109.696 159.271C108.857 159.274 108.048 158.962 107.428 158.397L107.988 157.844C108.217 158.078 108.492 158.262 108.796 158.383C109.1 158.505 109.425 158.562 109.753 158.551C110.08 158.539 110.401 158.459 110.695 158.317C110.99 158.174 111.251 157.972 111.463 157.722C111.746 157.462 111.963 157.137 112.096 156.776C112.229 156.415 112.274 156.028 112.227 155.646C112.078 154.731 111.622 153.893 110.932 153.273L110.138 152.473C109.533 151.794 108.72 151.334 107.826 151.166C107.451 151.106 107.066 151.139 106.706 151.261C106.346 151.383 106.021 151.59 105.759 151.866C105.249 152.301 104.927 152.915 104.859 153.581C104.872 154.241 105.117 154.876 105.551 155.374L104.988 155.927Z" fill="white"/>
<path id="Path 569" d="M104.551 159.798C104.589 160.254 104.51 160.712 104.321 161.129C104.135 161.536 103.843 161.886 103.476 162.142C103.243 162.337 102.97 162.479 102.676 162.556C102.382 162.633 102.075 162.644 101.776 162.589C101.141 162.383 100.6 161.958 100.25 161.389L97.6379 157.716L98.2542 157.278L100.869 160.956C101.125 161.374 101.518 161.69 101.982 161.848C102.205 161.887 102.433 161.877 102.652 161.817C102.87 161.757 103.072 161.65 103.244 161.503C103.618 161.244 103.887 160.86 104.005 160.421C104.129 159.949 104.116 159.451 103.969 158.985L101.244 155.152L101.859 154.715L107.509 162.66L106.894 163.098L104.551 159.798Z" fill="white"/>
<path id="Path 570" d="M96.3591 165.513C96.5225 165.458 96.6804 165.389 96.8311 165.305C97.2189 165.108 97.5253 164.782 97.697 164.382C97.8613 163.951 97.884 163.479 97.762 163.034L95.5042 158.893L96.167 158.531L99.4551 164.561L98.803 164.917L98.269 163.965C98.3071 164.372 98.2207 164.781 98.0215 165.138C97.8222 165.495 97.5195 165.784 97.1531 165.965C97.0058 166.052 96.8426 166.109 96.6731 166.132L96.3591 165.513Z" fill="white"/>
<path id="Path 571" d="M94.354 163.565C94.5901 164.134 94.6928 164.75 94.654 165.365C94.6255 165.925 94.434 166.465 94.1033 166.917C93.7725 167.37 93.3168 167.717 92.792 167.914C92.4087 168.083 91.993 168.164 91.5744 168.152C91.1559 168.141 90.7452 168.036 90.3721 167.846C89.5575 167.403 88.9381 166.672 88.636 165.795L88.5771 165.647C88.3387 165.076 88.2332 164.458 88.269 163.84C88.2978 163.284 88.4883 162.748 88.8171 162.298C89.1542 161.849 89.6118 161.505 90.1369 161.306C90.5199 161.138 90.9353 161.057 91.3533 161.069C91.7712 161.081 92.1812 161.186 92.5539 161.375C93.3701 161.816 93.9908 162.548 94.293 163.425L94.354 163.565ZM93.5691 163.653C93.3267 162.966 92.8515 162.386 92.2261 162.013C91.9464 161.859 91.6359 161.769 91.3171 161.749C90.9984 161.729 90.6794 161.78 90.3828 161.899C90.0862 162.017 89.8196 162.2 89.6023 162.434C89.385 162.668 89.2222 162.948 89.126 163.252C88.9315 163.975 88.9957 164.744 89.3071 165.425L89.362 165.56C89.5397 166.023 89.8144 166.442 90.168 166.79C90.4786 167.105 90.8721 167.326 91.303 167.427C91.7229 167.518 92.1607 167.478 92.5571 167.312C92.856 167.2 93.1241 167.019 93.3401 166.784C93.556 166.548 93.7137 166.265 93.8 165.958C93.9944 165.234 93.9312 164.465 93.6211 163.783L93.5691 163.653Z" fill="white"/>
<path id="Path 572" d="M86.988 169.755L86.696 168.617C86.5587 169.059 86.3113 169.458 85.9771 169.778C85.6501 170.084 85.2471 170.296 84.8101 170.393C84.5206 170.485 84.2143 170.512 83.9131 170.472C83.6119 170.432 83.3234 170.326 83.0681 170.161C82.5575 169.729 82.2183 169.128 82.1121 168.468L81.0881 164.079L81.823 163.907L82.8491 168.302C82.9273 168.786 83.1719 169.227 83.541 169.549C83.7324 169.67 83.9483 169.747 84.1731 169.775C84.3979 169.803 84.626 169.78 84.8411 169.709C85.2854 169.61 85.6803 169.357 85.9561 168.995C86.2498 168.605 86.427 168.14 86.467 167.654L85.3989 163.073L86.134 162.901L87.6951 169.59L86.988 169.755Z" fill="white"/>
<path id="Path 573" d="M80.1931 167.821C80.2522 168.435 80.1698 169.053 79.9522 169.63C79.7587 170.156 79.4159 170.615 78.9661 170.949C78.5162 171.284 77.9786 171.48 77.419 171.514C77.003 171.562 76.5818 171.516 76.1856 171.381C75.7893 171.246 75.428 171.024 75.1279 170.732C74.4804 170.069 74.105 169.187 74.0759 168.26L74.064 168.101C74.0051 167.485 74.0868 166.863 74.303 166.283C74.4961 165.76 74.8368 165.305 75.2839 164.972C75.7389 164.643 76.2779 164.45 76.8381 164.415C77.2535 164.368 77.674 164.414 78.0696 164.549C78.4652 164.684 78.826 164.905 79.126 165.196C79.7753 165.859 80.152 166.742 80.1812 167.669L80.1931 167.821ZM79.417 167.673C79.3882 166.945 79.105 166.25 78.617 165.709C78.3953 165.479 78.1256 165.301 77.8269 165.188C77.5283 165.075 77.2082 165.029 76.8899 165.055C76.5716 165.08 76.2628 165.176 75.9859 165.335C75.7089 165.494 75.4706 165.712 75.2881 165.974C74.8887 166.608 74.7229 167.361 74.8191 168.104L74.8311 168.25C74.8648 168.744 75.0028 169.226 75.2361 169.663C75.4413 170.056 75.7531 170.383 76.136 170.607C76.5096 170.818 76.9389 170.909 77.366 170.868C77.685 170.85 77.9953 170.756 78.2713 170.595C78.5472 170.434 78.7812 170.21 78.9541 169.941C79.3549 169.308 79.522 168.555 79.427 167.812L79.417 167.673Z" fill="white"/>
<path id="Path 574" d="M69.963 165.098C69.4823 165.052 69.0011 165.18 68.608 165.461C68.4258 165.59 68.2731 165.757 68.1605 165.95C68.0479 166.143 67.9779 166.358 67.955 166.58L67.226 166.534C67.2707 166.125 67.4319 165.737 67.6908 165.416C67.9578 165.084 68.3063 164.827 68.702 164.669C69.1135 164.5 69.5581 164.429 70.0018 164.459C70.4071 164.467 70.8054 164.568 71.1657 164.753C71.5259 164.939 71.8387 165.205 72.08 165.531C72.5912 166.285 72.8143 167.198 72.7089 168.103L72.694 168.331C72.6679 168.948 72.5082 169.552 72.226 170.101C71.9813 170.58 71.6011 170.976 71.1329 171.24C70.6507 171.5 70.1029 171.614 69.557 171.566C68.8723 171.548 68.2211 171.266 67.7408 170.777C67.5116 170.536 67.334 170.25 67.2186 169.938C67.1033 169.626 67.0527 169.293 67.07 168.961L67.799 169.007C67.7888 169.252 67.8275 169.496 67.913 169.725C67.9984 169.954 68.1289 170.164 68.2965 170.343C68.4642 170.521 68.6656 170.664 68.8893 170.763C69.113 170.863 69.3543 170.916 69.599 170.921C69.9039 170.955 70.2122 170.915 70.4979 170.803C70.7836 170.691 71.038 170.512 71.2389 170.28C71.6912 169.695 71.9373 168.977 71.9388 168.238L71.953 168.016C72.0425 167.293 71.8888 166.56 71.516 165.934C71.3434 165.68 71.112 165.472 70.8417 165.326C70.5713 165.18 70.27 165.102 69.963 165.098V165.098Z" fill="white"/>
<path id="Path 575" d="M65.2471 164.018L65.999 164.141L64.4199 173.763L63.6689 173.639L65.2471 164.018Z" fill="white"/>
<path id="Path 576" d="M60.869 162.907C61.4095 163.046 61.9004 163.333 62.286 163.736C62.6675 164.138 62.9275 164.64 63.036 165.184C63.1545 165.772 63.1301 166.38 62.965 166.957L62.8939 167.221C62.7426 167.818 62.457 168.373 62.059 168.843C61.6996 169.27 61.2297 169.59 60.7008 169.768C60.2004 169.941 59.6595 169.959 59.1488 169.819C58.7838 169.738 58.442 169.575 58.1488 169.343C57.8556 169.11 57.6188 168.815 57.456 168.478C57.127 167.703 57.0913 166.835 57.3559 166.035L57.4669 165.625L62.1979 166.901L62.236 166.761C62.4442 166.083 62.3942 165.352 62.0958 164.708C61.9635 164.415 61.7667 164.156 61.5202 163.95C61.2736 163.743 60.9838 163.596 60.672 163.517C60.3149 163.413 59.9388 163.391 59.5719 163.452C59.2068 163.527 58.8643 163.687 58.5719 163.918L58.2069 163.444C58.5674 163.134 59.0015 162.921 59.4677 162.827C59.9339 162.733 60.4165 162.761 60.869 162.907V162.907ZM59.318 169.194C59.5791 169.269 59.8532 169.288 60.122 169.248C60.3907 169.208 60.6477 169.112 60.8759 168.964C61.3983 168.617 61.7946 168.11 62.005 167.519L58.028 166.447L58.006 166.526C57.8486 167.09 57.8931 167.691 58.132 168.226C58.243 168.467 58.4074 168.679 58.6129 168.847C58.8185 169.015 59.0597 169.134 59.318 169.194V169.194Z" fill="white"/>
<path id="Path 577" d="M53.2041 164.158C52.931 164.71 52.5349 165.192 52.0461 165.567C51.6043 165.912 51.0712 166.121 50.5124 166.168C49.9536 166.216 49.3935 166.099 48.9001 165.832C48.5216 165.653 48.1873 165.392 47.9219 165.069C47.6564 164.745 47.4662 164.366 47.365 163.96C47.1654 163.055 47.3125 162.107 47.7771 161.305L47.8491 161.164C48.1241 160.609 48.5213 160.124 49.011 159.745C49.4501 159.401 49.9802 159.192 50.5361 159.145C51.096 159.105 51.6557 159.225 52.1501 159.491C52.5279 159.67 52.8613 159.931 53.1262 160.255C53.3911 160.578 53.581 160.956 53.6821 161.362C53.8848 162.267 53.7389 163.215 53.2739 164.018L53.2041 164.158ZM52.623 163.623C52.9827 162.99 53.1096 162.25 52.9819 161.533C52.915 161.221 52.7798 160.927 52.5857 160.673C52.3915 160.42 52.1434 160.212 51.8594 160.066C51.5753 159.92 51.2624 159.839 50.9431 159.828C50.6238 159.817 50.306 159.878 50.0129 160.005C49.3396 160.333 48.8015 160.885 48.4909 161.566L48.425 161.696C48.1923 162.133 48.056 162.616 48.0251 163.11C47.9905 163.552 48.082 163.994 48.289 164.386C48.4947 164.763 48.8114 165.067 49.196 165.257C49.4769 165.409 49.7898 165.493 50.1091 165.502C50.4285 165.511 50.7452 165.444 51.0339 165.307C51.7083 164.98 52.2477 164.429 52.5591 163.747L52.623 163.623Z" fill="white"/>
<path id="Path 578" d="M47.863 157.139L44.363 162.31L45.303 162.948L44.9541 163.463L44.0129 162.825L43.5471 163.514C43.2492 164.023 42.764 164.396 42.1951 164.553C41.9243 164.604 41.6458 164.596 41.3779 164.532C41.11 164.468 40.8588 164.349 40.6401 164.181C40.4134 164.03 40.2089 163.848 40.033 163.64L40.4331 163.152C40.592 163.323 40.7702 163.474 40.9641 163.603C41.1086 163.713 41.2755 163.791 41.4531 163.83C41.6307 163.869 41.8146 163.868 41.9919 163.828C42.3757 163.709 42.7012 163.45 42.905 163.104L43.3831 162.398L42.0271 161.479L42.376 160.965L43.7319 161.883L47.2319 156.713L47.863 157.139Z" fill="white"/>
<path id="Path 579" d="M41.7981 152.376L42.373 152.903L36.134 159.722L35.5581 159.195L41.7981 152.376Z" fill="white"/>
<path id="Path 580" d="M34.6141 154.954L35.48 154.16C35.0254 154.248 34.5558 154.218 34.116 154.073C33.693 153.928 33.316 153.674 33.024 153.335C32.8062 153.123 32.638 152.865 32.5313 152.581C32.4246 152.296 32.3822 151.991 32.407 151.688C32.5473 151.034 32.9169 150.452 33.449 150.047L36.836 147.073L37.336 147.641L33.9451 150.619C33.5552 150.916 33.2818 151.341 33.1722 151.819C33.1556 152.045 33.1892 152.271 33.2708 152.482C33.3524 152.693 33.48 152.883 33.6441 153.039C33.94 153.384 34.349 153.613 34.7981 153.685C35.2804 153.761 35.7741 153.698 36.222 153.504L39.7571 150.404L40.2571 150.972L35.096 155.503L34.6141 154.954Z" fill="white"/>
<path id="Path 581" d="M29.6759 148.868L30.6488 148.21C30.1862 148.229 29.7263 148.131 29.3119 147.924C28.9145 147.719 28.5793 147.411 28.341 147.032C28.1566 146.79 28.0279 146.511 27.9643 146.214C27.9006 145.917 27.9037 145.609 27.9731 145.313C28.2085 144.687 28.6595 144.166 29.245 143.843L33.0329 141.4L33.4421 142.035L29.6488 144.481C29.2201 144.718 28.8876 145.097 28.7089 145.553C28.6593 145.774 28.6592 146.003 28.7087 146.223C28.7581 146.444 28.856 146.651 28.995 146.829C29.2377 147.214 29.6084 147.5 30.0419 147.638C30.5081 147.784 31.0061 147.794 31.4779 147.668L35.4311 145.119L35.84 145.754L30.068 149.475L29.6759 148.868Z" fill="white"/>
<path id="Path 582" d="M29.2 141.806C28.6424 142.068 28.0322 142.199 27.4161 142.189C26.8555 142.184 26.3085 142.015 25.8421 141.704C25.3757 141.393 25.0102 140.953 24.7901 140.437C24.605 140.061 24.5059 139.649 24.4998 139.23C24.4938 138.812 24.5811 138.397 24.7552 138.016C25.1617 137.183 25.866 136.533 26.7291 136.194L26.8741 136.13C27.4345 135.866 28.0477 135.734 28.667 135.743C29.224 135.749 29.7673 135.917 30.231 136.225C30.6934 136.544 31.0568 136.986 31.2791 137.502C31.4631 137.877 31.5616 138.289 31.5674 138.707C31.5733 139.125 31.4864 139.539 31.313 139.919C30.9074 140.753 30.2033 141.404 29.3401 141.744L29.2 141.806ZM29.0792 141.026C29.755 140.755 30.3145 140.255 30.6602 139.614C30.8025 139.328 30.8794 139.014 30.8855 138.695C30.8917 138.375 30.8268 138.058 30.6956 137.767C30.5644 137.476 30.3703 137.218 30.127 137.01C29.8837 136.803 29.5976 136.653 29.2891 136.57C28.5581 136.407 27.7929 136.504 27.126 136.845L26.993 136.904C26.5384 137.102 26.1314 137.395 25.7991 137.763C25.4977 138.087 25.2943 138.49 25.2122 138.925C25.1387 139.348 25.1973 139.783 25.3802 140.172C25.5051 140.466 25.6975 140.726 25.9419 140.932C26.1864 141.137 26.4761 141.282 26.7872 141.355C27.5181 141.519 28.283 141.423 28.951 141.084L29.0792 141.026Z" fill="white"/>
<path id="Path 583" d="M24.98 127.858C25.8152 127.686 26.6847 127.843 27.407 128.296C28.1001 128.798 28.582 129.54 28.7591 130.377C28.9353 130.996 28.9242 131.653 28.7271 132.266C28.5202 132.879 28.1399 133.42 27.6321 133.821C27.0523 134.283 26.3802 134.615 25.6612 134.796L24.501 135.102C23.7795 135.309 23.022 135.357 22.2801 135.244C21.6321 135.148 21.0272 134.861 20.542 134.421C20.0608 133.972 19.7212 133.392 19.565 132.752C19.3 131.937 19.3621 131.05 19.7381 130.28C20.1523 129.551 20.825 129.004 21.6231 128.747L21.823 129.508C21.5063 129.59 21.2102 129.738 20.9537 129.941C20.6971 130.144 20.4859 130.398 20.3333 130.688C20.1807 130.977 20.0903 131.295 20.0677 131.622C20.0451 131.948 20.091 132.275 20.2022 132.583C20.2866 132.959 20.4594 133.31 20.7066 133.605C20.9538 133.901 21.268 134.133 21.6231 134.283C22.4905 134.608 23.4427 134.628 24.323 134.34L25.4161 134.05C26.3061 133.863 27.109 133.386 27.699 132.694C27.9375 132.398 28.1003 132.048 28.1731 131.674C28.246 131.301 28.2266 130.915 28.117 130.551C27.9937 129.892 27.6207 129.307 27.076 128.916C26.4966 128.599 25.824 128.495 25.1761 128.624L24.98 127.858Z" fill="white"/>
<path id="Path 584" d="M18.8879 126.92C18.755 126.941 18.6191 126.91 18.509 126.832C18.4229 126.771 18.3572 126.686 18.3203 126.587C18.2834 126.488 18.2771 126.381 18.3022 126.278C18.3274 126.176 18.3827 126.083 18.4612 126.013C18.5396 125.942 18.6374 125.897 18.7419 125.883C18.8074 125.872 18.8745 125.874 18.9392 125.889C19.0039 125.905 19.0647 125.933 19.1179 125.973C19.1742 126.016 19.221 126.071 19.2554 126.133C19.2898 126.195 19.3112 126.263 19.3181 126.334C19.3322 126.401 19.3319 126.47 19.3176 126.537C19.3033 126.604 19.2751 126.667 19.2349 126.722C19.1946 126.777 19.1432 126.823 19.084 126.858C19.0247 126.892 18.9591 126.913 18.8911 126.92H18.8879ZM27.5281 124.796L27.634 125.551L20.834 126.511L20.727 125.756L27.5281 124.796Z" fill="white"/>
<path id="Path 585" d="M18.6201 122.302L20.375 122.184L20.28 120.765L20.9011 120.723L20.9961 122.142L25.5671 121.837C25.8663 121.838 26.1583 121.746 26.4031 121.574C26.4962 121.484 26.5659 121.373 26.6064 121.25C26.647 121.127 26.6572 120.996 26.636 120.868C26.6161 120.663 26.5828 120.459 26.5361 120.258L27.1501 120.185C27.2473 120.441 27.3015 120.711 27.311 120.985C27.3441 121.195 27.3272 121.41 27.2617 121.612C27.1962 121.814 27.0839 121.998 26.9341 122.149C26.5587 122.438 26.0979 122.595 25.624 122.594L21.052 122.899L21.136 124.16L20.5151 124.202L20.4312 122.941L18.677 123.058L18.6201 122.302Z" fill="white"/>
<path id="Path 586" d="M26.0771 116.753L20.3831 114.524L20.4141 113.706L28.3311 116.948L28.6799 117.114C29.0395 117.252 29.3471 117.499 29.5591 117.821C29.7711 118.142 29.877 118.522 29.8621 118.907C29.8521 119.105 29.8147 119.3 29.751 119.487L29.1221 119.469L29.176 119.077C29.2034 118.753 29.1183 118.43 28.9351 118.162C28.6882 117.875 28.3682 117.659 28.009 117.539L27.0959 117.167L20.1899 119.49L20.2219 118.66L26.0771 116.753Z" fill="white"/>
</g>
</g>
</g>
<defs>
<clipPath id="clip0">
<rect width="639.286" height="462.329" fill="white"/>
</clipPath>
</defs>
</svg>
