<svg xmlns="http://www.w3.org/2000/svg" xmlns:xlink="http://www.w3.org/1999/xlink" width="668.64" height="300" viewBox="0 0 668.64 350">
  <defs>
    <linearGradient id="linear-gradient" x1="0.498" y1="0.341" x2="0.502" y2="-2.466" gradientUnits="objectBoundingBox">
      <stop offset="0" stop-color="#383a5f"/>
      <stop offset="1" stop-color="#171223"/>
    </linearGradient>
    <radialGradient id="radial-gradient" cx="1.057" cy="1.017" r="2.701" gradientTransform="matrix(0.607, 0, 0, -0.607, 0.415, -4.051)" gradientUnits="objectBoundingBox">
      <stop offset="0" stop-color="#fff"/>
      <stop offset="0.281" stop-color="#fcffff"/>
      <stop offset="0.476" stop-color="#f3ffff"/>
      <stop offset="0.645" stop-color="#e3ffff"/>
      <stop offset="0.798" stop-color="#cdffff"/>
      <stop offset="0.94" stop-color="#b2ffff"/>
      <stop offset="1" stop-color="#a4ffff"/>
    </radialGradient>
    <linearGradient id="linear-gradient-2" x1="0.498" y1="1.398" x2="0.502" y2="-0.307" xlink:href="#linear-gradient"/>
    <radialGradient id="radial-gradient-2" cx="1.057" cy="-0.017" r="1.64" gradientTransform="translate(0)" xlink:href="#radial-gradient"/>
  </defs>
  <g id="vision" transform="translate(-4255.56 -3754.423)">
    <g id="Group_26" data-name="Group 26">
      <g id="Group_25" data-name="Group 25" fill='white'>
        <path id="Path_228" data-name="Path 228" d="M4428.671,3785.507l-17.177,5.835,8.2,52.154-7.09,2.408-8.2-52.154-17.177,5.835-.96-6.314,41.445-14.078Z"/>
        <path id="Path_229" data-name="Path 229" d="M4448.253,3763.7l-4.845,1.092-8.1-8.79,7.116-1.574Zm25.433,49.518-23.07,5.1-4.485,16.62-7.86,1.738L4456.6,3772.9l6.452-1.427,23.856,54.439-7.233,1.6Zm-.168-47.848-6.838,1.533-6.754-4.944-6.15,7.8-8.137,1.78,10.524-13.054,5.787-1.28ZM4452.5,3811.46l18.729-4.144-10.6-25.5Z"/>
        <path id="Path_230" data-name="Path 230" d="M4506.851,3764.246l15.006,46.2,21.763-49.976,9.84-1.01-4.127,59.037-7.449.764,1.629-23.355,2.345-23.831-21.543,48.988-5.736.589-15.2-46.144-1.019,25.385-1.587,22.586-7.489.769,4.127-59.037Z"/>
        <path id="Path_231" data-name="Path 231" d="M4624.436,3819.188l-7.283-.3-18.96-46.065-9.689,44.9-7.563-.309,12.5-57.846,7.283.3,18.991,46.266,9.738-45.093,7.482.306Z"/>
        <path id="Path_232" data-name="Path 232" d="M4679.711,3825.976l-7.453-1.066,8.452-26.017-28.187-4.029-8.452,26.017-7.453-1.066,18.28-56.287,7.454,1.066-7.869,24.2,28.147,4.023,7.868-24.2,7.493,1.071Z"/>
        <path id="Path_233" data-name="Path 233" d="M4699.854,3830.271l-7.312-1.623,22.528-54.725,7.311,1.623Zm24.407-58.759-5.556-1.213-5.462-13.273,8.014,1.78Z"/>
        <path id="Path_234" data-name="Path 234" d="M4754.033,3845.446l-6.955-2.178-6.343-49.41-21.018,40.836-7.223-2.262,27.1-52.612,6.955,2.179,6.32,49.612,21.117-41.015,7.147,2.239Z"/>
      </g>
    </g>
    <ellipse id="Ellipse_24" data-name="Ellipse 24" cx="257.252" cy="118.15" rx="257.252" ry="118.15" transform="translate(4326.254 3860.226)" fill="url(#linear-gradient-2)"/>
    <circle id="Ellipse_25" data-name="Ellipse 25" cx="89.3" cy="89.3" r="89.3" transform="translate(4494.404 3888.866)" fill="#ff2727"/>
    <circle id="Ellipse_26" data-name="Ellipse 26" cx="89.3" cy="89.3" r="89.3" transform="translate(4494.404 3888.866)" fill="url(#radial-gradient-2)"/>
  </g>
</svg>
